<svg width="17" height="21" viewBox="0 0 17 21" fill="none" xmlns="http://www.w3.org/2000/svg">
<path d="M16.1096 10.5055C16.1096 10.8995 15.9746 11.2315 15.7047 11.5014L8.5801 18.6257C8.29556 18.8956 7.96359 19.0306 7.5842 19.0306C7.2121 19.0306 6.88378 18.8956 6.59924 18.6257L5.77844 17.8049C5.50119 17.5277 5.36256 17.1957 5.36256 16.8091C5.36256 16.4224 5.50119 16.0904 5.77844 15.8132L8.98503 12.6067H1.28045C0.901057 12.6067 0.592801 12.4699 0.35568 12.1963C0.11856 11.9227 0 11.5926 0 11.2059V9.80515C0 9.41848 0.11856 9.08835 0.35568 8.81476C0.592801 8.54117 0.901057 8.40437 1.28045 8.40437H8.98503L5.77844 5.18695C5.50119 4.9243 5.36256 4.59599 5.36256 4.20202C5.36256 3.80805 5.50119 3.47974 5.77844 3.2171L6.59924 2.39633C6.87649 2.11909 7.20481 1.98047 7.5842 1.98047C7.97089 1.98047 8.30286 2.11909 8.5801 2.39633L15.7047 9.52062C15.9746 9.77597 16.1096 10.1043 16.1096 10.5055Z" fill="black"/>
</svg>
