<svg width="236" height="72" viewBox="0 0 236 72" fill="none" xmlns="http://www.w3.org/2000/svg">
<path d="M60.1329 29.0918C61.3241 30.4732 59.2031 32.2 57.9393 30.8738C42.8896 15.3056 9.44891 20.7482 9.85566 51.0422C9.88472 51.2908 9.50702 51.3599 9.43439 51.1112L9.26007 50.5034C9.23101 50.4205 9.21648 50.3376 9.21648 50.2548C5.701 17.129 44.9524 11.5758 60.1329 29.0642V29.0918Z" fill="url(#paint0_linear_2550_2700)"/>
<path d="M40.6089 0.0414417C41.0302 0.455859 39.9697 0.939346 40.391 1.39521C41.1173 1.92013 42.3376 2.50032 43.1656 2.99762C46.0419 4.77961 48.2355 7.48714 48.6713 10.7887C48.7729 11.3827 48.7439 12.3082 48.3952 12.7641C48.1628 13.0542 47.9594 12.7917 47.8868 12.5568C47.5527 11.6451 47.9449 10.5953 47.5817 9.66974C47.4946 9.54542 47.3493 9.46253 47.2331 9.57304C47.0878 9.68356 47.0878 9.97365 47.1024 10.2223C47.1024 10.8163 47.2331 13.1923 46.376 13.1508C45.0105 13.3028 42.2214 13.6343 41.466 13.7172C40.6379 13.7863 41.2771 12.7641 41.4805 12.4049C41.7275 12.0181 41.9889 11.3274 41.7275 10.9821C41.6258 10.9268 41.5822 11.1202 41.5677 11.2169C41.4079 12.0181 40.5508 13.7863 39.9552 13.8277C39.4903 13.8277 39.7809 13.4271 39.9407 12.9851C40.391 11.7833 41.2916 10.319 41.3788 8.97904C41.5822 6.57542 40.7251 4.75199 39.0109 3.20483C38.7785 2.99762 38.3718 2.72134 38.1248 2.99762C31.1229 9.55923 37.0934 4.80724 27.9415 5.92617C23.1622 6.42347 14.4752 9.83551 12.2671 14.0488C12.0928 14.4079 12.2671 14.919 12.0928 15.2367C12.0492 15.3196 11.9911 15.3887 11.9185 15.4301C11.7878 15.4992 11.7442 15.4716 11.5989 15.4854C11.4391 15.4854 11.2648 15.4854 11.0905 15.4992C8.64997 15.5821 0.950769 15.8722 0.26801 15.8998C0.0210545 15.886 -0.0951598 15.6097 0.0936884 15.3473C0.238956 15.1539 0.456858 14.9881 0.631179 14.8223C5.62839 10.3604 11.8749 5.42887 17.4532 1.33995C18.0052 0.939346 18.6734 0.690696 19.3707 0.63544C22.7991 0.359162 32.3867 0.331534 37.6164 0.0828835C39.2143 0.0414417 40.3184 0 40.5217 0C40.7251 0 40.5944 0 40.6525 0.0414417H40.6089Z" fill="url(#paint1_linear_2550_2700)"/>
<path d="M32.2562 12.419C29.7286 12.6815 27.0411 13.5518 24.6297 14.4082C21.4047 15.5824 18.2233 17.1019 15.7247 19.4089C15.0129 20.0443 14.1849 20.8179 14.0396 19.3398C13.9089 18.4281 13.7055 16.8257 13.5748 15.8587C13.3714 14.9055 13.72 14.2425 14.4319 13.5379C18.6737 9.08986 25.0219 6.83819 31.2974 7.01777C32.1109 7.01777 32.8518 7.18354 33.3312 7.84661C38.0524 13.9109 38.0088 12.0599 32.2998 12.4052H32.2562V12.419Z" fill="url(#paint2_linear_2550_2700)"/>
<path d="M7.41516 44.9779C7.41516 44.9779 7.38611 45.0055 7.35705 44.9779C7.31347 44.9227 7.28442 44.7983 7.26989 44.7155C6.32565 38.0157 9.1148 30.5838 13.7053 25.4865C14.94 24.0498 12.5141 23.9117 13.4438 22.3507C18.717 16.1068 30.0334 12.1975 38.5025 13.3993C40.1295 13.7032 38.8075 15.4299 40.391 15.651C45.6642 16.466 51.01 18.3999 54.9178 21.8949C56.4866 23.4006 53.6394 21.7567 53.1891 21.4804C32.9097 10.0149 7.86549 23 7.42969 44.9779H7.41516Z" fill="url(#paint3_linear_2550_2700)"/>
<path d="M31.0793 71.4597C31.3844 71.5426 31.2827 71.9709 30.9631 71.9156C19.3417 69.9817 10.8871 59.9942 10.6256 48.8602C10.6111 48.5839 11.0469 48.5148 11.105 48.7911C12.5867 59.0825 20.3295 68.6693 31.0648 71.4459H31.0793V71.4597Z" fill="url(#paint4_linear_2550_2700)"/>
<path d="M28.2806 49.7853L28.1533 50.2938C28.1533 50.3301 28.1533 50.3482 28.1897 50.3664L44.3331 60.5361L62.4945 54.9609C63.258 54.743 63.4398 55.5784 63.5852 56.1232C63.8943 57.2309 63.9306 58.3206 63.1671 59.2649L45.0966 64.8219C39.6973 61.5712 34.5343 57.9392 29.3532 54.3616C29.1532 54.2345 28.935 54.18 28.7351 54.2164C28.3715 54.2708 28.2079 54.7248 28.4806 54.9972C29.1168 55.651 30.8803 56.7043 31.7347 57.3036C35.9705 60.3 40.4063 63.024 44.7694 65.857L63.7125 60.0458C65.6213 59.0651 65.2032 55.2152 63.6943 53.944L46.9691 44.8457L28.3533 49.6763C28.3169 49.6763 28.2988 49.7126 28.2806 49.749V49.7853Z" fill="url(#paint5_linear_2550_2700)"/>
<path d="M38.9338 65.7483C38.752 65.7846 38.6611 65.9662 38.7157 66.1478C39.0429 67.0921 39.5156 67.8912 39.5156 68.9808C39.5156 70.0704 39.3156 70.6697 38.8611 70.8331C38.4066 70.9966 38.6975 70.8331 38.6248 70.7968L24.172 62.2797C24.0811 62.2252 24.0266 62.1344 24.0266 62.0254C24.0266 61.8075 24.1357 61.7349 23.6267 61.8075C23.1176 61.8802 22.3904 62.4431 23.154 62.879C28.0443 65.4577 32.7891 68.9626 37.6794 71.4687C37.8612 71.5595 38.5339 71.8682 38.8247 71.9591C39.1156 72.0499 38.952 71.9591 39.0065 71.9591L59.1495 64.9855C59.1677 64.9855 59.1858 64.9855 59.204 64.9674C60.1493 64.4226 60.2584 63.1514 60.2402 62.0981C60.2402 61.8983 60.0403 61.753 59.8585 61.8257L45.0967 66.4202C43.9514 66.7471 42.5697 64.7858 41.7517 64.7313C40.9336 64.6768 39.8428 65.5304 38.9338 65.7483Z" fill="url(#paint6_linear_2550_2700)"/>
<path d="M22.7902 56.9406V57.0132C22.8084 57.0859 22.863 57.1403 22.9175 57.1767L37.4248 65.3306C37.443 65.3306 37.4611 65.3306 37.4793 65.3306C38.4428 65.5485 39.6609 64.7676 40.6244 64.3862C41.5879 64.0049 40.8062 64.1502 40.7153 64.023L40.4608 63.7325C40.4608 63.7325 40.4244 63.6962 40.4062 63.6962L28.0805 55.397C28.026 55.3606 27.9532 55.3425 27.8987 55.3606L22.9357 56.6682C22.8266 56.7045 22.7539 56.8135 22.7721 56.9224H22.7902V56.9406Z" fill="url(#paint7_linear_2550_2700)"/>
<path d="M25.3354 29.9004C25.5172 29.8096 25.7899 29.9004 25.9535 29.973C26.6262 30.2999 27.8079 31.2261 28.4623 31.7164C31.0075 33.5869 33.4072 35.8932 35.2251 38.4538C36.7158 39.035 37.2612 37.8364 38.2793 37.0555C41.7152 34.3859 46.66 32.5518 50.8959 31.5711C51.5685 31.4077 53.1683 30.9174 53.7137 31.2987C54.2591 31.6801 54.0955 32.2794 54.1682 32.6244C55.6225 38.9623 56.3315 45.5 57.8404 51.8379C58.0404 53.7265 55.7862 52.9457 54.5499 52.9638C49.7869 52.9638 45.0602 54.1261 41.1516 56.8864C39.8427 57.7944 39.1882 59.1383 37.3521 58.085L27.1352 47.1889L25.0627 30.2817C25.1355 30.1728 25.2082 30.0093 25.3354 29.9367V29.9004ZM35.5342 39.5071L37.7157 56.614C37.7521 57.2133 38.8065 57.4675 38.9155 56.8864L36.6795 39.5071H35.516H35.5342ZM56.6224 51.7108C56.477 51.2204 56.4952 50.4759 55.8952 50.3487C55.1317 50.1853 53.0592 50.2761 52.2048 50.3306C48.0417 50.6211 43.8058 52.1829 40.7517 55.0522C40.4244 55.3428 40.0245 55.6697 39.8791 56.0874L42.406 54.4711C46.7146 52.1648 51.7503 51.1115 56.6406 51.7108H56.6224Z" fill="url(#paint8_linear_2550_2700)"/>
<path d="M51.7685 30.4813L45.7874 31.9523C42.6424 33.0237 39.3882 34.2768 37.0976 36.7647C36.934 36.9463 36.2613 37.9451 36.1341 37.8906C34.2071 34.2586 30.7166 31.8614 27.2988 29.7185C27.3352 29.5188 27.6079 29.6822 27.7351 29.7367C28.026 29.8638 28.2442 30.0818 28.5714 30.1362L28.6805 27.8662C31.5892 29.2645 34.3707 32.152 35.6069 35.1484C35.8432 35.7114 35.9523 36.3652 36.1341 36.91C36.3159 37.4548 36.1704 37.1824 36.4068 37.2187C38.552 31.8251 44.8784 29.3735 50.1505 28.1749L50.6777 30.2997L51.7867 30.4631H51.7685V30.4813Z" fill="url(#paint9_linear_2550_2700)"/>
<path d="M35.5342 39.5068H36.6977L38.9338 56.8861C38.8065 57.4672 37.7521 57.213 37.7339 56.6137L35.5524 39.5068H35.5342Z" fill="white"/>
<path d="M56.6224 51.7108C51.7321 51.0934 46.6963 52.1648 42.3878 54.4711L39.8608 56.0874C40.0245 55.6697 40.4244 55.361 40.7335 55.0523C43.7876 52.183 48.0234 50.603 52.1866 50.3306C53.041 50.2761 55.1135 50.1853 55.877 50.3488C56.4769 50.4759 56.4588 51.2205 56.6042 51.7108H56.6224Z" fill="white"/>
<path d="M51.6959 40.8503C51.7686 40.8503 51.805 40.923 51.7686 40.9775C51.096 41.8855 50.4233 42.8116 49.7507 43.7196C49.078 44.6277 49.5689 43.9194 49.5144 43.992C49.4598 44.101 49.4598 44.3553 49.4053 44.5005C49.3326 44.7729 48.9144 45.3722 48.6781 45.4812C48.3327 45.6628 48.0782 45.4267 47.7509 45.3722C47.4237 45.3177 47.6782 45.3722 47.66 45.4085C47.4964 45.6628 47.351 45.917 47.1874 46.1531C46.8783 46.589 46.842 46.5163 46.442 46.7342C46.0421 46.9522 45.8239 47.0793 45.533 47.2972C45.2422 47.5151 44.7331 47.9691 44.3695 48.1689C44.006 48.3686 44.315 48.2052 44.2786 48.2052C44.2059 48.2234 44.1332 48.1507 44.1878 48.0781L45.8057 45.6809C45.8239 45.5901 46.0421 45.5357 46.0602 45.4993C46.0784 45.463 46.0602 45.463 46.0602 45.4085C46.0602 45.3541 46.0057 45.2996 45.933 45.3177C45.8603 45.3359 45.8421 45.3722 45.8239 45.3904C45.8057 45.4085 45.8239 45.5538 45.7876 45.5901C45.0422 46.6434 44.315 47.7149 43.606 48.7863C42.897 49.8578 43.5878 48.8227 43.5696 48.8408C43.5151 48.9135 43.3879 48.859 43.4242 48.7682C44.4241 47.2972 45.3331 45.7536 46.3329 44.2826C47.3328 42.8116 46.6783 43.7196 46.9329 43.7196C47.1874 43.7196 47.7146 44.2645 47.8964 44.5005C48.0782 44.7366 48.0964 44.8637 48.1327 44.8274C48.0964 44.7185 48.06 44.6095 48.0055 44.5005C47.8237 44.1555 47.2237 43.4291 46.8965 43.3746C46.5693 43.3201 46.5147 43.4291 46.4057 43.6288C46.2966 43.8286 46.2784 43.6833 46.2602 43.6288C46.1693 43.4291 46.1875 43.1748 46.2602 42.9751C46.3329 42.7753 46.7147 42.2305 46.842 42.1397C47.0783 41.9218 47.4782 42.1942 47.7146 42.3576C48.0964 42.6119 48.4054 42.9751 48.7326 43.3383C49.0599 43.7015 48.9144 43.3383 48.8599 43.2293C48.8054 43.1204 48.8417 43.193 48.8235 43.1748C48.5872 42.8298 48.1873 42.3758 47.8782 42.1216C47.5691 41.8673 47.551 41.9218 47.4237 41.831C47.2965 41.7402 47.3874 41.7583 47.4055 41.722C47.5328 41.4496 47.6964 41.0501 47.9327 40.923C48.1691 40.7959 48.369 40.814 48.569 40.8322C48.769 40.8503 48.6781 40.9048 48.6417 40.9593C48.5145 41.1409 48.2781 41.377 48.2781 41.5404C48.2781 41.7039 48.4418 41.7402 48.5327 41.6312C48.6963 41.4496 48.9508 40.8503 49.2053 40.8503H51.6959Z" fill="white"/>
<path d="M76.7827 41.0836L76.9846 41.1193V54.0205H74.0266V38.3394H78.1132L85.1459 51.2169L84.944 51.2644V38.3394H87.902V54.0205H83.7916L76.7827 41.0836ZM98.8093 51.3714C99.633 51.3714 100.366 51.2565 101.007 51.0268C101.649 50.7893 102.12 50.5556 102.421 50.3259L103.692 52.8563C103.328 53.1731 102.698 53.4938 101.803 53.8186C100.916 54.1433 99.8547 54.3056 98.6192 54.3056C97.463 54.3056 96.3819 54.1037 95.3761 53.6998C94.3703 53.2879 93.4872 52.7177 92.727 51.9891C91.9667 51.2526 91.3727 50.3933 90.945 49.4112C90.5173 48.4213 90.3035 47.3521 90.3035 46.2037C90.3035 45.0554 90.5134 43.9862 90.9331 42.9962C91.3608 41.9983 91.9548 41.1311 92.7151 40.3946C93.4754 39.6581 94.3584 39.0839 95.3642 38.6721C96.378 38.2602 97.463 38.0543 98.6192 38.0543C99.8547 38.0543 100.916 38.2167 101.803 38.5414C102.698 38.8661 103.328 39.1868 103.692 39.5036L102.421 42.034C102.12 41.8043 101.649 41.5746 101.007 41.345C100.366 41.1074 99.633 40.9886 98.8093 40.9886C97.9698 40.9886 97.2214 41.1232 96.5641 41.3925C95.9146 41.6618 95.3603 42.0379 94.9009 42.521C94.4495 42.9962 94.105 43.5467 93.8674 44.1723C93.6298 44.798 93.511 45.4632 93.511 46.1681C93.511 46.8809 93.6298 47.554 93.8674 48.1876C94.105 48.8133 94.4495 49.3677 94.9009 49.8508C95.3603 50.3259 95.9146 50.6982 96.5641 50.9674C97.2214 51.2367 97.9698 51.3714 98.8093 51.3714ZM109.017 40.9648H105.085V38.3394H115.908V40.9648H111.987V54.0205H109.017V40.9648ZM124.306 38.3394H134.036V40.9648H127.252V44.8851H133.94V47.4273H127.252V51.3951H134.036V54.0205H124.306V38.3394ZM139.957 54.0205H136.928V37.6742H139.957V54.0205ZM144.765 49.8151C144.788 50.2586 144.907 50.6546 145.121 51.0031C145.335 51.3516 145.644 51.6248 146.048 51.8228C146.459 52.0208 146.95 52.1198 147.521 52.1198C148.035 52.1198 148.487 52.0564 148.875 51.9297C149.271 51.803 149.604 51.6485 149.873 51.4664C150.15 51.2763 150.356 51.0942 150.491 50.9199L151.738 52.7731C151.516 53.0503 151.219 53.3077 150.847 53.5453C150.483 53.775 150.015 53.9571 149.445 54.0918C148.883 54.2343 148.178 54.3056 147.331 54.3056C146.261 54.3056 145.323 54.0957 144.515 53.676C143.707 53.2563 143.078 52.6504 142.626 51.8584C142.175 51.0664 141.949 50.124 141.949 49.0311C141.949 48.0807 142.151 47.2254 142.555 46.4651C142.959 45.6969 143.545 45.091 144.313 44.6475C145.089 44.204 146.02 43.9822 147.105 43.9822C148.127 43.9822 149.01 44.1802 149.754 44.5762C150.506 44.9643 151.089 45.5345 151.5 46.2869C151.912 47.0393 152.118 47.9579 152.118 49.043C152.118 49.1063 152.114 49.237 152.106 49.435C152.106 49.6251 152.098 49.7518 152.082 49.8151H144.765ZM149.291 47.95C149.283 47.6966 149.204 47.4234 149.053 47.1303C148.911 46.8373 148.685 46.5878 148.376 46.3819C148.067 46.176 147.655 46.0731 147.141 46.0731C146.626 46.0731 146.202 46.172 145.869 46.37C145.545 46.568 145.299 46.8135 145.133 47.1066C144.967 47.3917 144.872 47.6728 144.848 47.95H149.291ZM161.818 54.0205V52.3217C161.747 52.496 161.565 52.7415 161.272 53.0583C160.979 53.375 160.583 53.6641 160.084 53.9255C159.593 54.1789 159.014 54.3056 158.349 54.3056C157.415 54.3056 156.587 54.0839 155.866 53.6404C155.146 53.1889 154.579 52.5752 154.168 51.799C153.764 51.015 153.562 50.1319 153.562 49.1499C153.562 48.1678 153.764 47.2887 154.168 46.5126C154.579 45.7285 155.146 45.1108 155.866 44.6594C156.587 44.208 157.415 43.9822 158.349 43.9822C158.999 43.9822 159.561 44.0931 160.036 44.3149C160.519 44.5287 160.907 44.7821 161.2 45.0752C161.501 45.3603 161.695 45.6177 161.782 45.8473V44.2673H164.776V54.0205H161.818ZM156.52 49.1499C156.52 49.6963 156.642 50.1794 156.888 50.5992C157.133 51.011 157.458 51.3318 157.862 51.5614C158.266 51.7911 158.706 51.9059 159.181 51.9059C159.68 51.9059 160.123 51.7911 160.511 51.5614C160.899 51.3238 161.204 50.9991 161.426 50.5873C161.656 50.1676 161.77 49.6884 161.77 49.1499C161.77 48.6113 161.656 48.1361 161.426 47.7243C161.204 47.3046 160.899 46.9759 160.511 46.7383C160.123 46.5007 159.68 46.3819 159.181 46.3819C158.706 46.3819 158.266 46.5007 157.862 46.7383C157.458 46.968 157.133 47.2927 156.888 47.7124C156.642 48.1243 156.52 48.6034 156.52 49.1499ZM170.069 54.0205H167.051V44.2673H170.069V45.8473H170.009C170.065 45.6573 170.215 45.4157 170.461 45.1227C170.714 44.8297 171.063 44.5683 171.506 44.3386C171.95 44.101 172.484 43.9822 173.11 43.9822C173.561 43.9822 173.969 44.0496 174.333 44.1842C174.706 44.3109 174.971 44.4376 175.129 44.5643L173.941 47.0353C173.838 46.9086 173.644 46.7779 173.359 46.6433C173.082 46.5086 172.734 46.4413 172.314 46.4413C171.815 46.4413 171.399 46.5799 171.066 46.8571C170.734 47.1264 170.484 47.459 170.318 47.855C170.152 48.2431 170.069 48.6074 170.069 48.9479V54.0205ZM182.481 43.9822C183.146 43.9822 183.795 44.1208 184.429 44.398C185.062 44.6673 185.581 45.0989 185.985 45.6929C186.397 46.2869 186.603 47.063 186.603 48.0213V54.0205H183.573V48.544C183.573 47.7441 183.383 47.1501 183.003 46.7621C182.631 46.374 182.14 46.18 181.53 46.18C181.134 46.18 180.754 46.2908 180.39 46.5126C180.033 46.7264 179.74 47.0274 179.511 47.4154C179.289 47.7956 179.178 48.2312 179.178 48.7222V54.0205H176.161V44.2673H179.178V45.8236C179.265 45.5543 179.463 45.2771 179.772 44.992C180.081 44.7069 180.473 44.4693 180.948 44.2792C181.423 44.0812 181.934 43.9822 182.481 43.9822ZM189.114 54.0205V44.2673H192.119V54.0205H189.114ZM190.658 41.7489C190.159 41.7489 189.735 41.5746 189.387 41.2262C189.046 40.8777 188.876 40.4619 188.876 39.9788C188.876 39.4957 189.05 39.076 189.399 38.7196C189.747 38.3632 190.167 38.185 190.658 38.185C190.983 38.185 191.28 38.2681 191.549 38.4345C191.818 38.5929 192.036 38.8067 192.202 39.076C192.369 39.3452 192.452 39.6462 192.452 39.9788C192.452 40.4619 192.274 40.8777 191.917 41.2262C191.569 41.5746 191.149 41.7489 190.658 41.7489ZM201.089 43.9822C201.754 43.9822 202.404 44.1208 203.037 44.398C203.671 44.6673 204.189 45.0989 204.593 45.6929C205.005 46.2869 205.211 47.063 205.211 48.0213V54.0205H202.182V48.544C202.182 47.7441 201.992 47.1501 201.612 46.7621C201.239 46.374 200.748 46.18 200.138 46.18C199.742 46.18 199.362 46.2908 198.998 46.5126C198.642 46.7264 198.349 47.0274 198.119 47.4154C197.897 47.7956 197.786 48.2312 197.786 48.7222V54.0205H194.769V44.2673H197.786V45.8236C197.873 45.5543 198.071 45.2771 198.38 44.992C198.689 44.7069 199.081 44.4693 199.556 44.2792C200.032 44.0812 200.542 43.9822 201.089 43.9822ZM212.498 59.2357C211.785 59.2357 211.1 59.1683 210.442 59.0337C209.793 58.8991 209.203 58.6892 208.672 58.4041C208.142 58.119 207.698 57.7467 207.342 57.2874L209.171 55.4342C209.338 55.648 209.551 55.8618 209.813 56.0757C210.082 56.2974 210.423 56.4796 210.834 56.6221C211.246 56.7726 211.761 56.8479 212.379 56.8479C212.965 56.8479 213.468 56.733 213.887 56.5033C214.315 56.2816 214.644 55.9648 214.873 55.553C215.111 55.1412 215.23 54.662 215.23 54.1155V53.8423H218.188V54.2937C218.188 55.3708 217.934 56.2776 217.428 57.0142C216.921 57.7507 216.24 58.3051 215.384 58.6773C214.529 59.0495 213.567 59.2357 212.498 59.2357ZM215.23 54.0205V52.3217C215.159 52.496 214.976 52.7415 214.683 53.0583C214.39 53.375 213.994 53.6641 213.495 53.9255C213.004 54.1789 212.426 54.3056 211.761 54.3056C210.826 54.3056 209.999 54.0839 209.278 53.6404C208.557 53.1889 207.991 52.5752 207.579 51.799C207.175 51.015 206.974 50.1319 206.974 49.1499C206.974 48.1678 207.175 47.2887 207.579 46.5126C207.991 45.7285 208.557 45.1108 209.278 44.6594C209.999 44.208 210.826 43.9822 211.761 43.9822C212.41 43.9822 212.973 44.0931 213.448 44.3149C213.931 44.5287 214.319 44.7821 214.612 45.0752C214.913 45.3603 215.107 45.6177 215.194 45.8473V44.2673H218.188V54.0205H215.23ZM209.932 49.1499C209.932 49.6963 210.054 50.1794 210.3 50.5992C210.545 51.011 210.87 51.3318 211.274 51.5614C211.678 51.7911 212.117 51.9059 212.593 51.9059C213.091 51.9059 213.535 51.7911 213.923 51.5614C214.311 51.3238 214.616 50.9991 214.838 50.5873C215.067 50.1676 215.182 49.6884 215.182 49.1499C215.182 48.6113 215.067 48.1361 214.838 47.7243C214.616 47.3046 214.311 46.9759 213.923 46.7383C213.535 46.5007 213.091 46.3819 212.593 46.3819C212.117 46.3819 211.678 46.5007 211.274 46.7383C210.87 46.968 210.545 47.2927 210.3 47.7124C210.054 48.1243 209.932 48.6034 209.932 49.1499Z" fill="black"/>
<path d="M73.5633 61.1595H75.7432C76.1709 61.1595 76.5728 61.2169 76.949 61.3317C77.3252 61.4465 77.6301 61.6406 77.8637 61.9138C78.0973 62.187 78.2142 62.5672 78.2142 63.0543C78.2142 63.3829 78.1488 63.6819 78.0181 63.9512C77.8914 64.2165 77.733 64.4323 77.543 64.5986C77.3529 64.7649 77.1648 64.8639 76.9787 64.8956C77.1292 64.9075 77.2955 64.955 77.4776 65.0382C77.6637 65.1213 77.8399 65.2401 78.0063 65.3945C78.1765 65.549 78.3151 65.743 78.4221 65.9766C78.5329 66.2063 78.5884 66.4795 78.5884 66.7963C78.5884 67.224 78.5012 67.6041 78.327 67.9368C78.1528 68.2694 77.8875 68.5308 77.5311 68.7208C77.1787 68.9069 76.7312 69 76.1887 69H73.5633V61.1595ZM74.5731 68.1506H76.0877C76.4639 68.1506 76.7549 68.0853 76.9609 67.9546C77.1707 67.82 77.3172 67.6457 77.4004 67.4319C77.4875 67.2181 77.5311 66.9904 77.5311 66.7488C77.5311 66.3489 77.4004 66.0261 77.1391 65.7806C76.8777 65.5351 76.4995 65.4124 76.0045 65.4124H74.5731V68.1506ZM74.5731 64.5808H75.8858C76.1867 64.5808 76.4342 64.5154 76.6282 64.3848C76.8223 64.2501 76.9668 64.0799 77.0618 63.8739C77.1569 63.6641 77.2044 63.4483 77.2044 63.2265C77.2044 62.7711 77.0698 62.4543 76.8005 62.2761C76.5352 62.0979 76.1788 62.0089 75.7313 62.0089H74.5731V64.5808ZM81.4006 69.1426C80.8977 69.1426 80.4502 69.0297 80.0582 68.804C79.6701 68.5783 79.3652 68.2734 79.1435 67.8893C78.9217 67.5012 78.8108 67.0636 78.8108 66.5766C78.8108 66.0895 78.9217 65.65 79.1435 65.2579C79.3652 64.8659 79.6701 64.555 80.0582 64.3254C80.4502 64.0957 80.8977 63.9809 81.4006 63.9809C81.8995 63.9809 82.3411 64.0957 82.7252 64.3254C83.1132 64.555 83.4162 64.8659 83.6339 65.2579C83.8517 65.65 83.9606 66.0895 83.9606 66.5766C83.9606 67.0636 83.8517 67.5012 83.6339 67.8893C83.4162 68.2734 83.1132 68.5783 82.7252 68.804C82.3411 69.0297 81.8995 69.1426 81.4006 69.1426ZM81.4006 68.2575C81.7174 68.2575 81.9926 68.1843 82.2262 68.0378C82.4638 67.8912 82.6479 67.6913 82.7786 67.4378C82.9093 67.1804 82.9746 66.8914 82.9746 66.5706C82.9746 66.2499 82.9093 65.9608 82.7786 65.7034C82.6479 65.446 82.4638 65.2421 82.2262 65.0916C81.9926 64.9411 81.7174 64.8659 81.4006 64.8659C81.0798 64.8659 80.8007 64.9411 80.5631 65.0916C80.3255 65.2421 80.1394 65.446 80.0047 65.7034C79.8741 65.9608 79.8087 66.2499 79.8087 66.5706C79.8087 66.8914 79.8741 67.1804 80.0047 67.4378C80.1394 67.6913 80.3255 67.8912 80.5631 68.0378C80.8007 68.1843 81.0798 68.2575 81.4006 68.2575ZM81.2461 63.8205L80.9254 63.3453C81.0284 63.3215 81.1571 63.2681 81.3115 63.1849C81.4699 63.1018 81.6105 62.9909 81.7332 62.8523C81.8599 62.7137 81.9233 62.5494 81.9233 62.3593C81.9233 62.1653 81.8837 62.0267 81.8045 61.9435C81.7253 61.8564 81.6263 61.801 81.5075 61.7772C81.3887 61.7534 81.2679 61.7416 81.1452 61.7416C80.9749 61.7416 80.7908 61.7752 80.5928 61.8425C80.3987 61.9059 80.2423 61.9673 80.1235 62.0267V61.403C80.1948 61.3555 80.3275 61.2961 80.5215 61.2248C80.7155 61.1535 80.9789 61.1179 81.3115 61.1179C81.5372 61.1179 81.751 61.1535 81.953 61.2248C82.1549 61.2921 82.3193 61.4089 82.446 61.5752C82.5767 61.7416 82.642 61.9732 82.642 62.2702C82.642 62.4999 82.5925 62.7018 82.4935 62.8761C82.3985 63.0503 82.2757 63.2008 82.1252 63.3275C81.9787 63.4502 81.8263 63.5512 81.6679 63.6304C81.5134 63.7096 81.3729 63.773 81.2461 63.8205ZM88.2905 62.0801H86.1759V61.1595H91.4267V62.0801H89.3121V69H88.2905V62.0801ZM92.1036 66.5825C92.1036 67.0933 92.2124 67.5012 92.4302 67.8061C92.652 68.107 92.9906 68.2575 93.4459 68.2575C93.9053 68.2575 94.2439 68.107 94.4617 67.8061C94.6794 67.5012 94.7883 67.0933 94.7883 66.5825V64.1234H95.81V66.7251C95.81 67.2002 95.7169 67.62 95.5308 67.9843C95.3487 68.3486 95.0814 68.6337 94.7289 68.8396C94.3805 69.0416 93.9528 69.1426 93.4459 69.1426C92.943 69.1426 92.5154 69.0416 92.1629 68.8396C91.8145 68.6337 91.5472 68.3486 91.3611 67.9843C91.1789 67.62 91.0878 67.2002 91.0878 66.7251V64.1234H92.1036V66.5825ZM92.7094 63.4522L92.3471 62.9592L94.1468 61.4683L94.7408 62.2049L92.7094 63.4522ZM96.6145 69V64.1234H97.648V69H96.6145ZM97.1431 62.4543C96.957 62.4543 96.7966 62.389 96.662 62.2583C96.5313 62.1237 96.466 61.9633 96.466 61.7772C96.466 61.5911 96.5313 61.4307 96.662 61.2961C96.7966 61.1614 96.957 61.0941 97.1431 61.0941C97.2659 61.0941 97.3787 61.1258 97.4817 61.1892C97.5886 61.2525 97.6737 61.3357 97.7371 61.4386C97.8004 61.5376 97.8321 61.6505 97.8321 61.7772C97.8321 61.9633 97.7648 62.1237 97.6302 62.2583C97.4955 62.389 97.3332 62.4543 97.1431 62.4543ZM102.75 65.0382L105.952 69H104.728L101.806 65.3767V69H100.79V61.1595H101.806V64.753L104.538 61.1595H105.708L102.75 65.0382ZM108.094 68.0556L109.74 64.1234H110.773L107.483 71.471H106.437L107.542 69L105.534 64.1234H106.586L108.094 68.0556ZM106.211 63.0364C106.251 62.8543 106.318 62.6682 106.413 62.4781C106.512 62.288 106.639 62.1276 106.794 61.997C106.952 61.8623 107.136 61.795 107.346 61.795C107.587 61.795 107.791 61.8326 107.958 61.9079C108.124 61.9831 108.28 62.0583 108.427 62.1336C108.573 62.2088 108.736 62.2464 108.914 62.2464C109.053 62.2464 109.164 62.195 109.247 62.092C109.33 61.9891 109.383 61.8901 109.407 61.795H110.155C110.116 61.9693 110.045 62.1534 109.942 62.3474C109.843 62.5375 109.714 62.6998 109.556 62.8345C109.401 62.9691 109.219 63.0364 109.009 63.0364C108.768 63.0364 108.562 62.9988 108.391 62.9236C108.221 62.8483 108.065 62.7731 107.922 62.6979C107.78 62.6226 107.629 62.585 107.471 62.585C107.34 62.585 107.229 62.6365 107.138 62.7394C107.051 62.8384 106.992 62.9374 106.96 63.0364H106.211ZM114.075 62.1217L114.14 62.1336V69H113.125V61.1595H114.556L118.625 68.0199L118.56 68.0318V61.1595H119.575V69H118.132L114.075 62.1217ZM124.348 69V68.0496C124.316 68.1486 124.223 68.2852 124.069 68.4595C123.918 68.6337 123.71 68.7921 123.445 68.9347C123.183 69.0733 122.875 69.1426 122.518 69.1426C122.067 69.1426 121.657 69.0356 121.289 68.8218C120.924 68.608 120.633 68.309 120.416 67.9249C120.202 67.5368 120.095 67.0834 120.095 66.5647C120.095 66.0459 120.202 65.5945 120.416 65.2104C120.633 64.8223 120.924 64.5214 121.289 64.3076C121.657 64.0898 122.067 63.9809 122.518 63.9809C122.871 63.9809 123.176 64.0442 123.433 64.1709C123.694 64.2977 123.902 64.4442 124.057 64.6105C124.215 64.7768 124.308 64.9194 124.336 65.0382V64.1234H125.357V69H124.348ZM121.116 66.5647C121.116 66.9171 121.194 67.222 121.348 67.4794C121.503 67.7368 121.702 67.9368 121.948 68.0793C122.197 68.2179 122.463 68.2872 122.744 68.2872C123.045 68.2872 123.314 68.2159 123.552 68.0734C123.789 67.9308 123.977 67.7309 124.116 67.4735C124.255 67.2121 124.324 66.9092 124.324 66.5647C124.324 66.2202 124.255 65.9192 124.116 65.6618C123.977 65.4005 123.789 65.1985 123.552 65.056C123.314 64.9095 123.045 64.8362 122.744 64.8362C122.463 64.8362 122.197 64.9075 121.948 65.05C121.702 65.1926 121.503 65.3926 121.348 65.65C121.194 65.9073 121.116 66.2123 121.116 66.5647ZM122.803 63.3334C122.463 63.3334 122.166 63.2681 121.912 63.1374C121.663 63.0067 121.463 62.8384 121.312 62.6325C121.166 62.4266 121.079 62.2049 121.051 61.9673L121.865 61.7653C121.885 61.8881 121.93 62.0168 122.001 62.1514C122.077 62.286 122.18 62.3989 122.31 62.49C122.445 62.5811 122.609 62.6266 122.803 62.6266C122.993 62.6266 123.154 62.5811 123.284 62.49C123.419 62.3989 123.522 62.286 123.593 62.1514C123.669 62.0168 123.714 61.8881 123.73 61.7653L124.55 61.9673C124.526 62.193 124.441 62.4108 124.294 62.6207C124.148 62.8305 123.948 63.0028 123.694 63.1374C123.445 63.2681 123.148 63.3334 122.803 63.3334ZM128.845 63.9809C129.166 63.9809 129.476 64.0482 129.777 64.1828C130.082 64.3175 130.332 64.5313 130.526 64.8243C130.724 65.1134 130.823 65.4916 130.823 65.9588V69H129.777V66.1608C129.777 65.6777 129.665 65.3272 129.439 65.1094C129.213 64.8877 128.922 64.7768 128.566 64.7768C128.332 64.7768 128.106 64.8441 127.889 64.9788C127.675 65.1094 127.499 65.2916 127.36 65.5252C127.221 65.7549 127.152 66.0162 127.152 66.3093V69H126.118V64.1234H127.152V64.9906C127.188 64.856 127.285 64.7095 127.443 64.5511C127.601 64.3927 127.803 64.2581 128.049 64.1472C128.294 64.0363 128.56 63.9809 128.845 63.9809ZM133.79 71.6076C133.406 71.6076 133.057 71.568 132.745 71.4888C132.436 71.4096 132.164 71.2967 131.931 71.1502C131.701 71.0077 131.517 70.8394 131.378 70.6453L132.056 69.9979C132.131 70.1008 132.232 70.2097 132.358 70.3246C132.489 70.4434 132.665 70.5443 132.887 70.6275C133.109 70.7107 133.398 70.7522 133.754 70.7522C134.103 70.7522 134.398 70.677 134.639 70.5265C134.881 70.38 135.065 70.18 135.192 69.9266C135.318 69.6732 135.382 69.3881 135.382 69.0713V68.9109H136.392V69.1366C136.392 69.6752 136.275 70.1266 136.041 70.4909C135.811 70.8592 135.501 71.1363 135.109 71.3225C134.717 71.5125 134.277 71.6076 133.79 71.6076ZM135.382 69V68.0496C135.35 68.1486 135.257 68.2852 135.103 68.4595C134.952 68.6337 134.744 68.7921 134.479 68.9347C134.218 69.0733 133.909 69.1426 133.552 69.1426C133.101 69.1426 132.691 69.0356 132.323 68.8218C131.958 68.608 131.667 68.309 131.45 67.9249C131.236 67.5368 131.129 67.0834 131.129 66.5647C131.129 66.0459 131.236 65.5945 131.45 65.2104C131.667 64.8223 131.958 64.5214 132.323 64.3076C132.691 64.0898 133.101 63.9809 133.552 63.9809C133.905 63.9809 134.21 64.0442 134.467 64.1709C134.728 64.2977 134.936 64.4442 135.091 64.6105C135.249 64.7768 135.342 64.9194 135.37 65.0382V64.1234H136.392V69H135.382ZM132.151 66.5647C132.151 66.9171 132.228 67.222 132.382 67.4794C132.537 67.7368 132.737 67.9368 132.982 68.0793C133.232 68.2179 133.497 68.2872 133.778 68.2872C134.079 68.2872 134.348 68.2159 134.586 68.0734C134.823 67.9308 135.012 67.7309 135.15 67.4735C135.289 67.2121 135.358 66.9092 135.358 66.5647C135.358 66.2202 135.289 65.9192 135.15 65.6618C135.012 65.4005 134.823 65.1985 134.586 65.056C134.348 64.9095 134.079 64.8362 133.778 64.8362C133.497 64.8362 133.232 64.9075 132.982 65.05C132.737 65.1926 132.537 65.3926 132.382 65.65C132.228 65.9073 132.151 66.2123 132.151 66.5647ZM139.375 66.7429V65.846H142.434V66.7429H139.375ZM147.095 62.0801H144.98V61.1595H150.231V62.0801H148.117V69H147.095V62.0801ZM153.363 63.9809C153.684 63.9809 153.995 64.0482 154.296 64.1828C154.601 64.3175 154.85 64.5313 155.044 64.8243C155.242 65.1134 155.341 65.4916 155.341 65.9588V69H154.296V66.1608C154.296 65.6777 154.185 65.3272 153.963 65.1094C153.745 64.8877 153.458 64.7768 153.102 64.7768C152.864 64.7768 152.637 64.8441 152.419 64.9788C152.201 65.1094 152.021 65.2916 151.878 65.5252C151.74 65.7549 151.67 66.0162 151.67 66.3093V69H150.625V60.8268H151.67V64.9906C151.706 64.856 151.801 64.7095 151.955 64.5511C152.114 64.3927 152.316 64.2581 152.561 64.1472C152.807 64.0363 153.074 63.9809 153.363 63.9809ZM159.946 69V68.0496C159.914 68.1486 159.821 68.2852 159.666 68.4595C159.516 68.6337 159.308 68.7921 159.043 68.9347C158.781 69.0733 158.473 69.1426 158.116 69.1426C157.665 69.1426 157.255 69.0356 156.887 68.8218C156.522 68.608 156.231 68.309 156.014 67.9249C155.8 67.5368 155.693 67.0834 155.693 66.5647C155.693 66.0459 155.8 65.5945 156.014 65.2104C156.231 64.8223 156.522 64.5214 156.887 64.3076C157.255 64.0898 157.665 63.9809 158.116 63.9809C158.469 63.9809 158.774 64.0442 159.031 64.1709C159.292 64.2977 159.5 64.4442 159.655 64.6105C159.813 64.7768 159.906 64.9194 159.934 65.0382V64.1234H160.955V69H159.946ZM156.714 66.5647C156.714 66.9171 156.792 67.222 156.946 67.4794C157.101 67.7368 157.3 67.9368 157.546 68.0793C157.795 68.2179 158.061 68.2872 158.342 68.2872C158.643 68.2872 158.912 68.2159 159.15 68.0734C159.387 67.9308 159.575 67.7309 159.714 67.4735C159.853 67.2121 159.922 66.9092 159.922 66.5647C159.922 66.2202 159.853 65.9192 159.714 65.6618C159.575 65.4005 159.387 65.1985 159.15 65.056C158.912 64.9095 158.643 64.8362 158.342 64.8362C158.061 64.8362 157.795 64.9075 157.546 65.05C157.3 65.1926 157.101 65.3926 156.946 65.65C156.792 65.9073 156.714 66.2123 156.714 66.5647ZM159.328 63.2146L157.302 61.9732L157.885 61.2367L159.702 62.7276L159.328 63.2146ZM164.35 63.9809C164.671 63.9809 164.982 64.0482 165.283 64.1828C165.587 64.3175 165.837 64.5313 166.031 64.8243C166.229 65.1134 166.328 65.4916 166.328 65.9588V69H165.283V66.1608C165.283 65.6777 165.17 65.3272 164.944 65.1094C164.718 64.8877 164.427 64.7768 164.071 64.7768C163.837 64.7768 163.612 64.8441 163.394 64.9788C163.18 65.1094 163.004 65.2916 162.865 65.5252C162.726 65.7549 162.657 66.0162 162.657 66.3093V69H161.624V64.1234H162.657V64.9906C162.693 64.856 162.79 64.7095 162.948 64.5511C163.107 64.3927 163.309 64.2581 163.554 64.1472C163.8 64.0363 164.065 63.9809 164.35 63.9809ZM169.729 63.9809C170.049 63.9809 170.36 64.0482 170.661 64.1828C170.966 64.3175 171.216 64.5313 171.41 64.8243C171.608 65.1134 171.707 65.4916 171.707 65.9588V69H170.661V66.1608C170.661 65.6777 170.55 65.3272 170.329 65.1094C170.111 64.8877 169.824 64.7768 169.467 64.7768C169.23 64.7768 169.002 64.8441 168.784 64.9788C168.566 65.1094 168.386 65.2916 168.244 65.5252C168.105 65.7549 168.036 66.0162 168.036 66.3093V69H166.99V60.8268H168.036V64.9906C168.072 64.856 168.167 64.7095 168.321 64.5511C168.479 64.3927 168.681 64.2581 168.927 64.1472C169.172 64.0363 169.44 63.9809 169.729 63.9809ZM176.288 62.0801H174.173V61.1595H179.424V62.0801H177.309V69H176.288V62.0801ZM182.556 63.9809C182.877 63.9809 183.187 64.0482 183.488 64.1828C183.793 64.3175 184.043 64.5313 184.237 64.8243C184.435 65.1134 184.534 65.4916 184.534 65.9588V69H183.488V66.1608C183.488 65.6777 183.378 65.3272 183.156 65.1094C182.938 64.8877 182.651 64.7768 182.295 64.7768C182.057 64.7768 181.829 64.8441 181.611 64.9788C181.394 65.1094 181.214 65.2916 181.071 65.5252C180.932 65.7549 180.863 66.0162 180.863 66.3093V69H179.818V60.8268H180.863V64.9906C180.899 64.856 180.994 64.7095 181.148 64.5511C181.307 64.3927 181.509 64.2581 181.754 64.1472C182 64.0363 182.267 63.9809 182.556 63.9809ZM189.138 69V68.0496C189.107 68.1486 189.014 68.2852 188.859 68.4595C188.709 68.6337 188.501 68.7921 188.236 68.9347C187.974 69.0733 187.665 69.1426 187.309 69.1426C186.858 69.1426 186.448 69.0356 186.079 68.8218C185.715 68.608 185.424 68.309 185.206 67.9249C184.992 67.5368 184.886 67.0834 184.886 66.5647C184.886 66.0459 184.992 65.5945 185.206 65.2104C185.424 64.8223 185.715 64.5214 186.079 64.3076C186.448 64.0898 186.858 63.9809 187.309 63.9809C187.661 63.9809 187.966 64.0442 188.224 64.1709C188.485 64.2977 188.693 64.4442 188.847 64.6105C189.006 64.7768 189.099 64.9194 189.127 65.0382V64.1234H190.148V69H189.138ZM185.907 66.5647C185.907 66.9171 185.984 67.222 186.139 67.4794C186.293 67.7368 186.493 67.9368 186.739 68.0793C186.988 68.2179 187.254 68.2872 187.535 68.2872C187.836 68.2872 188.105 68.2159 188.342 68.0734C188.58 67.9308 188.768 67.7309 188.907 67.4735C189.045 67.2121 189.115 66.9092 189.115 66.5647C189.115 66.2202 189.045 65.9192 188.907 65.6618C188.768 65.4005 188.58 65.1985 188.342 65.056C188.105 64.9095 187.836 64.8362 187.535 64.8362C187.254 64.8362 186.988 64.9075 186.739 65.05C186.493 65.1926 186.293 65.3926 186.139 65.65C185.984 65.9073 185.907 66.2123 185.907 66.5647ZM187.671 70.8057C187.521 70.8057 187.392 70.7503 187.285 70.6394C187.178 70.5325 187.125 70.4058 187.125 70.2592C187.125 70.1127 187.178 69.984 187.285 69.8732C187.392 69.7623 187.521 69.7068 187.671 69.7068C187.822 69.7068 187.95 69.7603 188.057 69.8672C188.168 69.9781 188.224 70.1088 188.224 70.2592C188.224 70.4097 188.168 70.5384 188.057 70.6453C187.95 70.7522 187.822 70.8057 187.671 70.8057ZM193.074 69.1426C192.571 69.1426 192.123 69.0297 191.731 68.804C191.343 68.5783 191.038 68.2734 190.816 67.8893C190.595 67.5012 190.484 67.0636 190.484 66.5766C190.484 66.0895 190.595 65.65 190.816 65.2579C191.038 64.8659 191.343 64.555 191.731 64.3254C192.123 64.0957 192.571 63.9809 193.074 63.9809C193.572 63.9809 194.014 64.0957 194.398 64.3254C194.786 64.555 195.089 64.8659 195.307 65.2579C195.525 65.65 195.634 66.0895 195.634 66.5766C195.634 67.0636 195.525 67.5012 195.307 67.8893C195.089 68.2734 194.786 68.5783 194.398 68.804C194.014 69.0297 193.572 69.1426 193.074 69.1426ZM193.074 68.2575C193.39 68.2575 193.666 68.1843 193.899 68.0378C194.137 67.8912 194.321 67.6913 194.452 67.4378C194.582 67.1804 194.648 66.8914 194.648 66.5706C194.648 66.2499 194.582 65.9608 194.452 65.7034C194.321 65.446 194.137 65.2421 193.899 65.0916C193.666 64.9411 193.39 64.8659 193.074 64.8659C192.753 64.8659 192.474 64.9411 192.236 65.0916C191.998 65.2421 191.812 65.446 191.678 65.7034C191.547 65.9608 191.482 66.2499 191.482 66.5706C191.482 66.8914 191.547 67.1804 191.678 67.4378C191.812 67.6913 191.998 67.8912 192.236 68.0378C192.474 68.1843 192.753 68.2575 193.074 68.2575ZM198.318 69V61.1595H200.165C201.001 61.1595 201.688 61.3278 202.226 61.6643C202.769 61.997 203.171 62.4583 203.432 63.0483C203.694 63.6383 203.824 64.3135 203.824 65.0738C203.824 65.838 203.694 66.5152 203.432 67.1052C203.171 67.6952 202.771 68.1585 202.232 68.4951C201.694 68.8317 201.005 69 200.165 69H198.318ZM197.599 65.543V64.6461H200.86V65.543H197.599ZM199.328 68.0734H200.082C200.7 68.0734 201.205 67.9447 201.597 67.6873C201.989 67.4299 202.278 67.0775 202.464 66.63C202.654 66.1786 202.751 65.6638 202.755 65.0857C202.755 64.5036 202.662 63.9888 202.476 63.5413C202.29 63.0899 201.999 62.7355 201.603 62.4781C201.207 62.2167 200.7 62.0861 200.082 62.0861H199.328V68.0734ZM206.632 69.1426C206.129 69.1426 205.681 69.0297 205.289 68.804C204.901 68.5783 204.596 68.2734 204.374 67.8893C204.153 67.5012 204.042 67.0636 204.042 66.5766C204.042 66.0895 204.153 65.65 204.374 65.2579C204.596 64.8659 204.901 64.555 205.289 64.3254C205.681 64.0957 206.129 63.9809 206.632 63.9809C207.131 63.9809 207.572 64.0957 207.956 64.3254C208.344 64.555 208.647 64.8659 208.865 65.2579C209.083 65.65 209.192 66.0895 209.192 66.5766C209.192 67.0636 209.083 67.5012 208.865 67.8893C208.647 68.2734 208.344 68.5783 207.956 68.804C207.572 69.0297 207.131 69.1426 206.632 69.1426ZM206.632 68.2575C206.948 68.2575 207.224 68.1843 207.457 68.0378C207.695 67.8912 207.879 67.6913 208.01 67.4378C208.14 67.1804 208.206 66.8914 208.206 66.5706C208.206 66.2499 208.14 65.9608 208.01 65.7034C207.879 65.446 207.695 65.2421 207.457 65.0916C207.224 64.9411 206.948 64.8659 206.632 64.8659C206.311 64.8659 206.032 64.9411 205.794 65.0916C205.556 65.2421 205.37 65.446 205.236 65.7034C205.105 65.9608 205.04 66.2499 205.04 66.5706C205.04 66.8914 205.105 67.1804 205.236 67.4378C205.37 67.6913 205.556 67.8912 205.794 68.0378C206.032 68.1843 206.311 68.2575 206.632 68.2575ZM206.614 71.5779C206.463 71.5779 206.335 71.5224 206.228 71.4116C206.121 71.3046 206.067 71.1779 206.067 71.0314C206.067 70.8849 206.121 70.7562 206.228 70.6453C206.335 70.5344 206.463 70.479 206.614 70.479C206.764 70.479 206.893 70.5325 207 70.6394C207.111 70.7503 207.166 70.8809 207.166 71.0314C207.166 71.1819 207.111 71.3106 207 71.4175C206.893 71.5244 206.764 71.5779 206.614 71.5779ZM211.923 68.2872C212.232 68.2872 212.482 68.2377 212.672 68.1387C212.862 68.0397 212.981 67.9685 213.028 67.9249L213.533 68.6674C213.493 68.703 213.398 68.7604 213.248 68.8396C213.101 68.9149 212.911 68.9842 212.678 69.0475C212.448 69.1109 212.187 69.1426 211.894 69.1426C211.446 69.1426 211.03 69.0436 210.646 68.8456C210.262 68.6436 209.951 68.3506 209.714 67.9665C209.48 67.5824 209.363 67.1131 209.363 66.5587C209.363 66.0004 209.48 65.5312 209.714 65.151C209.951 64.7669 210.262 64.4758 210.646 64.2779C211.03 64.0799 211.446 63.9809 211.894 63.9809C212.183 63.9809 212.44 64.0165 212.666 64.0878C212.892 64.1551 213.078 64.2303 213.224 64.3135C213.371 64.3967 213.468 64.46 213.515 64.5036L213.004 65.246C212.973 65.2144 212.911 65.1668 212.82 65.1035C212.733 65.0362 212.614 64.9748 212.464 64.9194C212.313 64.8639 212.133 64.8362 211.923 64.8362C211.67 64.8362 211.422 64.9055 211.181 65.0441C210.943 65.1787 210.747 65.3747 210.593 65.6321C210.438 65.8895 210.361 66.1984 210.361 66.5587C210.361 66.9191 210.438 67.2299 210.593 67.4913C210.747 67.7487 210.943 67.9467 211.181 68.0853C211.422 68.2199 211.67 68.2872 211.923 68.2872ZM220.887 65.5252H217.127V69H216.124V61.1595H217.127V64.6105H220.887V61.1595H221.891V69H220.887V65.5252ZM222.855 69V64.1234H223.888V69H222.855ZM223.383 62.4543C223.197 62.4543 223.037 62.389 222.902 62.2583C222.772 62.1237 222.706 61.9633 222.706 61.7772C222.706 61.5911 222.772 61.4307 222.902 61.2961C223.037 61.1614 223.197 61.0941 223.383 61.0941C223.506 61.0941 223.619 61.1258 223.722 61.1892C223.829 61.2525 223.914 61.3357 223.977 61.4386C224.041 61.5376 224.072 61.6505 224.072 61.7772C224.072 61.9633 224.005 62.1237 223.87 62.2583C223.736 62.389 223.573 62.4543 223.383 62.4543ZM225.403 66.7726C225.407 67.0656 225.47 67.3329 225.593 67.5744C225.716 67.816 225.898 68.0081 226.139 68.1506C226.385 68.2932 226.686 68.3644 227.042 68.3644C227.343 68.3644 227.599 68.3209 227.808 68.2338C228.022 68.1427 228.197 68.0358 228.331 67.913C228.466 67.7863 228.563 67.6734 228.622 67.5744L229.127 68.1981C228.996 68.3882 228.836 68.5545 228.646 68.6971C228.46 68.8396 228.232 68.9485 227.963 69.0238C227.694 69.103 227.365 69.1426 226.977 69.1426C226.454 69.1426 226.001 69.0317 225.617 68.8099C225.237 68.5842 224.944 68.2734 224.738 67.8774C224.532 67.4774 224.429 67.0201 224.429 66.5053C224.429 66.0301 224.526 65.6024 224.72 65.2223C224.914 64.8382 225.195 64.5352 225.563 64.3135C225.935 64.0917 226.383 63.9809 226.906 63.9809C227.385 63.9809 227.801 64.0818 228.153 64.2838C228.509 64.4818 228.785 64.7629 228.979 65.1272C229.177 65.4916 229.276 65.9271 229.276 66.434C229.276 66.4657 229.274 66.5231 229.27 66.6063C229.266 66.6855 229.262 66.7409 229.258 66.7726H225.403ZM228.29 65.9945C228.286 65.8321 228.238 65.6539 228.147 65.4599C228.06 65.2658 227.917 65.0995 227.719 64.9609C227.521 64.8223 227.254 64.753 226.918 64.753C226.569 64.753 226.288 64.8204 226.074 64.955C225.864 65.0896 225.71 65.254 225.611 65.448C225.512 65.6381 225.454 65.8202 225.439 65.9945H228.29ZM228.04 62.0801L227.719 61.6049C227.822 61.5812 227.951 61.5277 228.105 61.4446C228.264 61.3614 228.404 61.2505 228.527 61.1119C228.654 60.9733 228.717 60.809 228.717 60.6189C228.717 60.4249 228.678 60.2863 228.598 60.2032C228.519 60.116 228.42 60.0606 228.301 60.0368C228.183 60.0131 228.062 60.0012 227.939 60.0012C227.769 60.0012 227.585 60.0349 227.387 60.1022C227.193 60.1655 227.036 60.2269 226.918 60.2863V59.6626C226.989 59.6151 227.121 59.5557 227.315 59.4844C227.51 59.4132 227.773 59.3775 228.105 59.3775C228.331 59.3775 228.545 59.4132 228.747 59.4844C228.949 59.5518 229.113 59.6686 229.24 59.8349C229.371 60.0012 229.436 60.2328 229.436 60.5298C229.436 60.7595 229.386 60.9615 229.287 61.1357C229.192 61.3099 229.07 61.4604 228.919 61.5871C228.773 61.7099 228.62 61.8109 228.462 61.8901C228.307 61.9693 228.167 62.0326 228.04 62.0801ZM228.254 63.6007L226.923 62.6266L225.599 63.5948L225.147 62.9889L226.923 61.6881L228.705 62.9949L228.254 63.6007ZM230.684 66.5825C230.684 67.0933 230.793 67.5012 231.011 67.8061C231.232 68.107 231.571 68.2575 232.026 68.2575C232.486 68.2575 232.824 68.107 233.042 67.8061C233.26 67.5012 233.369 67.0933 233.369 66.5825V64.1234H234.39V66.7251C234.39 67.2002 234.297 67.62 234.111 67.9843C233.929 68.3486 233.662 68.6337 233.309 68.8396C232.961 69.0416 232.533 69.1426 232.026 69.1426C231.523 69.1426 231.096 69.0416 230.743 68.8396C230.395 68.6337 230.127 68.3486 229.941 67.9843C229.759 67.62 229.668 67.2002 229.668 66.7251V64.1234H230.684V66.5825Z" fill="black"/>
<defs>
<linearGradient id="paint0_linear_2550_2700" x1="16.3056" y1="26.8678" x2="45.9039" y2="49.4752" gradientUnits="userSpaceOnUse">
<stop stop-color="#ED551F"/>
<stop offset="0.4" stop-color="#ED551F"/>
<stop offset="1" stop-color="#FAC500"/>
</linearGradient>
<linearGradient id="paint1_linear_2550_2700" x1="10.7854" y1="1.29851" x2="40.0754" y2="23.6702" gradientUnits="userSpaceOnUse">
<stop stop-color="#ED551F"/>
<stop offset="0.4" stop-color="#ED551F"/>
<stop offset="1" stop-color="#FAC500"/>
</linearGradient>
<linearGradient id="paint2_linear_2550_2700" x1="17.4534" y1="9.50428" x2="30.9634" y2="19.8207" gradientUnits="userSpaceOnUse">
<stop stop-color="#ED551F"/>
<stop offset="0.4" stop-color="#ED551F"/>
<stop offset="1" stop-color="#FAC500"/>
</linearGradient>
<linearGradient id="paint3_linear_2550_2700" x1="14.0684" y1="21.5357" x2="40.6104" y2="41.8284" gradientUnits="userSpaceOnUse">
<stop stop-color="#ED551F"/>
<stop offset="0.4" stop-color="#ED551F"/>
<stop offset="1" stop-color="#FAC500"/>
</linearGradient>
<linearGradient id="paint4_linear_2550_2700" x1="7.7493" y1="52.5347" x2="31.8671" y2="70.9707" gradientUnits="userSpaceOnUse">
<stop stop-color="#ED551F"/>
<stop offset="0.4" stop-color="#ED551F"/>
<stop offset="1" stop-color="#FAC500"/>
</linearGradient>
<linearGradient id="paint5_linear_2550_2700" x1="32.2255" y1="44.4825" x2="60.4921" y2="65.0321" gradientUnits="userSpaceOnUse">
<stop stop-color="#ED551F"/>
<stop offset="1" stop-color="#FAC500"/>
</linearGradient>
<linearGradient id="paint6_linear_2550_2700" x1="29.3169" y1="53.472" x2="54.5315" y2="71.8212" gradientUnits="userSpaceOnUse">
<stop stop-color="#ED551F"/>
<stop offset="0.4" stop-color="#ED551F"/>
<stop offset="1" stop-color="#FAC500"/>
</linearGradient>
<linearGradient id="paint7_linear_2550_2700" x1="24.1719" y1="54.9974" x2="39.4859" y2="66.1451" gradientUnits="userSpaceOnUse">
<stop stop-color="#ED551F"/>
<stop offset="0.4" stop-color="#ED551F"/>
<stop offset="1" stop-color="#FAC500"/>
</linearGradient>
<linearGradient id="paint8_linear_2550_2700" x1="25.3536" y1="30.0638" x2="57.3624" y2="53.3413" gradientUnits="userSpaceOnUse">
<stop stop-color="#ED551F"/>
<stop offset="1" stop-color="#FAC500"/>
</linearGradient>
<linearGradient id="paint9_linear_2550_2700" x1="31.2801" y1="24.4339" x2="47.6842" y2="36.3636" gradientUnits="userSpaceOnUse">
<stop stop-color="#ED551F"/>
<stop offset="1" stop-color="#FAC500"/>
</linearGradient>
</defs>
</svg>
