<?xml version="1.0" encoding="UTF-8"?>
<svg id="Layer_1" xmlns="http://www.w3.org/2000/svg" xmlns:xlink="http://www.w3.org/1999/xlink" version="1.1" viewBox="0 0 736 736">
  <!-- Generator: Adobe Illustrator 29.8.2, SVG Export Plug-In . SVG Version: 2.1.1 Build 3)  -->
  <defs>
    <style>
      .st0 {
        fill: url(#linear-gradient2);
      }

      .st1 {
        fill: url(#linear-gradient1);
      }

      .st2 {
        fill: url(#linear-gradient9);
      }

      .st3 {
        fill: url(#linear-gradient3);
      }

      .st4 {
        fill: url(#linear-gradient6);
      }

      .st5 {
        fill: url(#linear-gradient8);
      }

      .st6 {
        fill: url(#linear-gradient7);
      }

      .st7 {
        fill: url(#linear-gradient5);
      }

      .st8 {
        fill: url(#linear-gradient4);
      }

      .st9 {
        fill: url(#linear-gradient10);
      }

      .st10 {
        fill: #231f20;
      }

      .st11 {
        fill: #fff;
      }

      .st12 {
        display: none;
        fill: url(#linear-gradient);
      }
    </style>
    <linearGradient id="linear-gradient" x1="724" y1="803.7" x2="-1.7" y2="-61.1" gradientTransform="translate(0 736) scale(1 -1)" gradientUnits="userSpaceOnUse">
      <stop offset="0" stop-color="#fffbf7"/>
      <stop offset=".4" stop-color="#fef7ee"/>
      <stop offset="1" stop-color="#fdefda"/>
    </linearGradient>
    <linearGradient id="linear-gradient1" x1="332.1" y1="339.5" x2="487.7" y2="226.4" gradientTransform="translate(0 737.2) rotate(0) scale(1 -1)" gradientUnits="userSpaceOnUse">
      <stop offset="0" stop-color="#ed551f"/>
      <stop offset="1" stop-color="#fac500"/>
    </linearGradient>
    <linearGradient id="linear-gradient2" x1="316.1" y1="290" x2="454.9" y2="189.1" gradientTransform="translate(0 737.2) rotate(0) scale(1 -1)" gradientUnits="userSpaceOnUse">
      <stop offset="0" stop-color="#ed551f"/>
      <stop offset=".4" stop-color="#ed551f"/>
      <stop offset="1" stop-color="#fac500"/>
    </linearGradient>
    <linearGradient id="linear-gradient3" x1="287.9" y1="281.6" x2="372.2" y2="220.3" gradientTransform="translate(0 737.2) rotate(0) scale(1 -1)" gradientUnits="userSpaceOnUse">
      <stop offset="0" stop-color="#ed551f"/>
      <stop offset=".4" stop-color="#ed551f"/>
      <stop offset="1" stop-color="#fac500"/>
    </linearGradient>
    <linearGradient id="linear-gradient4" x1="294.3" y1="418.9" x2="470.5" y2="290.8" gradientTransform="translate(0 737.2) rotate(0) scale(1 -1)" gradientUnits="userSpaceOnUse">
      <stop offset="0" stop-color="#ed551f"/>
      <stop offset="1" stop-color="#fac500"/>
    </linearGradient>
    <linearGradient id="linear-gradient5" x1="326.9" y1="449.9" x2="417.2" y2="384.3" gradientTransform="translate(0 737.2) rotate(0) scale(1 -1)" gradientUnits="userSpaceOnUse">
      <stop offset="0" stop-color="#ed551f"/>
      <stop offset="1" stop-color="#fac500"/>
    </linearGradient>
    <linearGradient id="linear-gradient6" x1="237.7" y1="434.6" x2="448.8" y2="281.2" gradientTransform="translate(0 736) scale(1 -1)" gradientUnits="userSpaceOnUse">
      <stop offset="0" stop-color="#ed551f"/>
      <stop offset=".4" stop-color="#ed551f"/>
      <stop offset="1" stop-color="#fac500"/>
    </linearGradient>
    <linearGradient id="linear-gradient7" x1="199.6" y1="619.6" x2="408.6" y2="467.8" gradientTransform="translate(0 736) scale(1 -1)" gradientUnits="userSpaceOnUse">
      <stop offset="0" stop-color="#ed551f"/>
      <stop offset=".4" stop-color="#ed551f"/>
      <stop offset="1" stop-color="#fac500"/>
    </linearGradient>
    <linearGradient id="linear-gradient8" x1="245.5" y1="560.2" x2="342" y2="490.2" gradientTransform="translate(0 736) scale(1 -1)" gradientUnits="userSpaceOnUse">
      <stop offset="0" stop-color="#ed551f"/>
      <stop offset=".4" stop-color="#ed551f"/>
      <stop offset="1" stop-color="#fac500"/>
    </linearGradient>
    <linearGradient id="linear-gradient9" x1="222.3" y1="473.2" x2="411.6" y2="335.5" gradientTransform="translate(0 736) scale(1 -1)" gradientUnits="userSpaceOnUse">
      <stop offset="0" stop-color="#ed551f"/>
      <stop offset=".4" stop-color="#ed551f"/>
      <stop offset="1" stop-color="#fac500"/>
    </linearGradient>
    <linearGradient id="linear-gradient10" x1="178.8" y1="248.7" x2="350.9" y2="123.7" gradientTransform="translate(0 736) scale(1 -1)" gradientUnits="userSpaceOnUse">
      <stop offset="0" stop-color="#ed551f"/>
      <stop offset=".4" stop-color="#ed551f"/>
      <stop offset="1" stop-color="#fac500"/>
    </linearGradient>
  </defs>
  <rect class="st12" x="-41.6" y="-34.7" width="808" height="795.8"/>
  <path class="st1" d="M310.4,426.7l-.7,2.8c0,.2,0,.3.2.4l88.8,56h0l99.9-30.7c4.2-1.2,5.2,3.4,6,6.4,1.7,6.1,1.9,12.1-2.3,17.3h0l-99.4,30.6h0c-29.7-17.9-58.1-37.9-86.6-57.6-1.1-.7-2.3-1-3.4-.8-2,.3-2.9,2.8-1.4,4.3h0c3.5,3.6,13.2,9.4,17.9,12.7,23.3,16.5,47.7,31.5,71.7,47.1h0l104.2-32h0c10.5-5.4,8.2-26.6-.1-33.6h0l-92-50.1h0l-102.4,26.6c-.2,0-.3.2-.4.4v.2Z"/>
  <path class="st0" d="M369,514.6c-1,.2-1.5,1.2-1.2,2.2,1.8,5.2,4.4,9.6,4.4,15.6s-1.1,9.3-3.6,10.2-.9,0-1.3-.2l-79.5-46.9c-.5-.3-.8-.8-.8-1.4,0-1.2.6-1.6-2.2-1.2s-6.8,3.5-2.6,5.9c26.9,14.2,53,33.5,79.9,47.3,1,.5,4.7,2.2,6.3,2.7s.7,0,1,0l110.8-38.4c.1,0,.2,0,.3-.1,5.2-3,5.8-10,5.7-15.8,0-1.1-1.1-1.9-2.1-1.5l-81.2,25.3c-6.3,1.8-13.9-9-18.4-9.3s-10.5,4.4-15.5,5.6h0Z"/>
  <path class="st3" d="M280.2,466.1v.4c.1.4.4.7.7.9l79.8,44.9c.1,0,.2,0,.3,0,5.3,1.2,12-3.1,17.3-5.2s1-1.3.5-2l-1.4-1.6s-.2-.2-.3-.2l-67.8-45.7c-.3-.2-.7-.3-1-.2l-27.3,7.2c-.6.2-1,.8-.9,1.4h.1Z"/>
  <path class="st8" d="M294.2,317.2c1-.5,2.5,0,3.4.4,3.7,1.8,10.2,6.9,13.8,9.6,14,10.3,27.2,23,37.2,37.1,8.2,3.2,11.2-3.4,16.8-7.7,18.9-14.7,46.1-24.8,69.4-30.2,3.7-.9,12.5-3.6,15.5-1.5s2.1,5.4,2.5,7.3c8,34.9,11.9,70.9,20.2,105.8,1.1,10.4-11.3,6.1-18.1,6.2-26.2,0-52.2,6.4-73.7,21.6-7.2,5-10.8,12.4-20.9,6.6l-56.2-60-11.4-93.1c.4-.6.8-1.5,1.5-1.9v-.2ZM350.3,370.1l12,94.2c.2,3.3,6,4.7,6.6,1.5l-12.3-95.7h-6.4,0ZM466.3,437.3c-.8-2.7-.7-6.8-4-7.5-4.2-.9-15.6-.4-20.3-.1-22.9,1.6-46.2,10.2-63,26-1.8,1.6-4,3.4-4.8,5.7l13.9-8.9c23.7-12.7,51.4-18.5,78.3-15.2h-.1Z"/>
  <path class="st7" d="M439.6,320.4l-32.9,8.1c-17.3,5.9-35.2,12.8-47.8,26.5-.9,1-4.6,6.5-5.3,6.2-10.6-20-29.8-33.2-48.6-45,.2-1.1,1.7-.2,2.4.1,1.6.7,2.8,1.9,4.6,2.2l.6-12.5c16,7.7,31.3,23.6,38.1,40.1,1.3,3.1,1.9,6.7,2.9,9.7s.2,1.5,1.5,1.7c11.8-29.7,46.6-43.2,75.6-49.8l2.9,11.7,6.1.9h-.1Z"/>
  <path class="st11" d="M350.3,370.1h6.4l12.3,95.7c-.7,3.2-6.5,1.8-6.6-1.5l-12-94.2h0Z"/>
  <path class="st11" d="M466.3,437.3c-26.9-3.4-54.6,2.5-78.3,15.2l-13.9,8.9c.9-2.3,3.1-4,4.8-5.7,16.8-15.8,40.1-24.5,63-26,4.7-.3,16.1-.8,20.3.1,3.3.7,3.2,4.8,4,7.5h.1Z"/>
  <path class="st4" d="M539.4,317.5c8.2,10-6.4,22.5-15.1,12.9-103.6-112.7-333.8-73.3-331,146,.2,1.8-2.4,2.3-2.9.5l-1.2-4.4c-.2-.6-.3-1.2-.3-1.8-24.2-239.8,246-280,350.5-153.4v.2Z"/>
  <path class="st6" d="M405,107.2c2.9,3-4.4,6.5-1.5,9.8,5,3.8,13.4,8,19.1,11.6,19.8,12.9,34.9,32.5,37.9,56.4.7,4.3.5,11-1.9,14.3-1.6,2.1-3,.2-3.5-1.5-2.3-6.6.4-14.2-2.1-20.9-.6-.9-1.6-1.5-2.4-.7-1,.8-1,2.9-.9,4.7,0,4.3.9,21.5-5,21.2-9.4,1.1-28.6,3.5-33.8,4.1-5.7.5-1.3-6.9.1-9.5,1.7-2.8,3.5-7.8,1.7-10.3-.7-.4-1,1-1.1,1.7-1.1,5.8-7,18.6-11.1,18.9-3.2,0-1.2-2.9-.1-6.1,3.1-8.7,9.3-19.3,9.9-29,1.4-17.4-4.5-30.6-16.3-41.8-1.6-1.5-4.4-3.5-6.1-1.5-48.2,47.5-7.1,13.1-70.1,21.2-32.9,3.6-92.7,28.3-107.9,58.8-1.2,2.6,0,6.3-1.2,8.6-.3.6-.7,1.1-1.2,1.4-.9.5-1.2.3-2.2.4-1.1,0-2.3,0-3.5.1-16.8.6-69.8,2.7-74.5,2.9-1.7-.1-2.5-2.1-1.2-4,1-1.4,2.5-2.6,3.7-3.8,34.4-32.3,77.4-68,115.8-97.6,3.8-2.9,8.4-4.7,13.2-5.1,23.6-2,89.6-2.2,125.6-4,11-.3,18.6-.6,20-.6s.5,0,.9.3h-.3Z"/>
  <path class="st5" d="M347.5,196.8c-17.4,1.9-35.9,8.2-52.5,14.4-22.2,8.5-44.1,19.5-61.3,36.2-4.9,4.6-10.6,10.2-11.6-.5-.9-6.6-2.3-18.2-3.2-25.2-1.4-6.9,1-11.7,5.9-16.8,29.2-32.2,72.9-48.5,116.1-47.2,5.6,0,10.7,1.2,14,6,32.5,43.9,32.2,30.5-7.1,33h-.3Z"/>
  <path class="st2" d="M176.5,432.5s-.2.2-.4,0c-.3-.4-.5-1.3-.6-1.9-6.5-48.5,12.7-102.3,44.3-139.2,8.5-10.4-8.2-11.4-1.8-22.7,36.3-45.2,114.2-73.5,172.5-64.8,11.2,2.2,2.1,14.7,13,16.3,36.3,5.9,73.1,19.9,100,45.2,10.8,10.9-8.8-1-11.9-3-139.6-83-312,11-315,170.1h-.1Z"/>
  <path class="st9" d="M339.4,624.2c2.1.6,1.4,3.7-.8,3.3-80-14-138.2-86.3-140-166.9-.1-2,2.9-2.5,3.3-.5,10.2,74.5,63.5,143.9,137.4,164h.1Z"/>
  <g>
    <path d="M363.3,574.3h.4v22.9h-5.2v-27.7h7.2l12.4,22.8h-.4v-22.8h5.2v27.7h-7.3l-12.4-22.9h0Z"/>
    <path d="M401.9,592.5c1.5,0,2.8-.2,3.9-.6,1.1-.4,2-.8,2.5-1.2l2.2,4.5c-.6.6-1.8,1.1-3.3,1.7-1.6.6-3.5.9-5.6.9s-4-.4-5.7-1.1c-1.8-.7-3.3-1.7-4.7-3s-2.4-2.8-3.2-4.6-1.1-3.6-1.1-5.7.4-3.9,1.1-5.7,1.8-3.3,3.1-4.6c1.3-1.3,2.9-2.3,4.7-3,1.8-.7,3.7-1.1,5.7-1.1s4.1.3,5.6.9c1.6.6,2.7,1.1,3.3,1.7l-2.2,4.5c-.5-.4-1.4-.8-2.5-1.2s-2.4-.6-3.9-.6-2.8.2-4,.7-2.1,1.1-2.9,2c-.8.8-1.4,1.8-1.8,2.9-.4,1.1-.6,2.3-.6,3.5s.2,2.4.6,3.6c.4,1.1,1,2.1,1.8,2.9.8.8,1.8,1.5,2.9,2,1.2.5,2.5.7,4,.7h.1Z"/>
    <path d="M419.5,574.1h-7v-4.6h19.1v4.6h-6.9v23.1h-5.2v-23.1Z"/>
    <path d="M445.3,569.5h17.2v4.6h-12v6.9h11.8v4.5h-11.8v7h12v4.6h-17.2v-27.7h0Z"/>
    <path d="M472.6,597.2h-5.4v-28.9h5.4v28.9Z"/>
    <path d="M480.6,589.7c0,.8.3,1.5.6,2.1s.9,1.1,1.6,1.4c.7.3,1.6.5,2.6.5s1.7,0,2.4-.3c.7-.2,1.3-.5,1.8-.8s.8-.6,1.1-1l2.2,3.3c-.4.5-.9,1-1.6,1.4-.6.4-1.5.7-2.5,1-1,.2-2.3.4-3.7.4s-3.5-.4-5-1.1c-1.4-.7-2.5-1.8-3.3-3.2s-1.2-3.1-1.2-5,.4-3.2,1.1-4.5c.7-1.4,1.8-2.4,3.1-3.2,1.4-.8,3-1.2,4.9-1.2s3.4.3,4.7,1c1.3.7,2.3,1.7,3.1,3,.7,1.3,1.1,3,1.1,4.9s0,.3,0,.7v.7h-13ZM488.7,586.4c0-.4-.2-.9-.4-1.4-.3-.5-.7-1-1.2-1.3s-1.3-.5-2.2-.5-1.7.2-2.2.5c-.6.4-1,.8-1.3,1.3s-.5,1-.5,1.5h7.9,0Z"/>
    <path d="M510.4,597.2v-3c-.1.3-.4.7-1,1.3-.5.6-1.2,1.1-2.1,1.5-.9.5-1.9.7-3.1.7s-3.1-.4-4.4-1.2-2.3-1.9-3-3.3-1.1-2.9-1.1-4.7.4-3.3,1.1-4.7,1.7-2.5,3-3.3,2.7-1.2,4.4-1.2,2.1.2,3,.6c.8.4,1.5.8,2.1,1.3.5.5.9,1,1,1.4v-2.8h5.3v17.2h-5.2v.2ZM501,588.6c0,1,.2,1.8.7,2.6.4.7,1,1.3,1.7,1.7s1.5.6,2.3.6,1.7-.2,2.4-.6c.7-.4,1.2-1,1.6-1.7s.6-1.6.6-2.5-.2-1.8-.6-2.5-.9-1.3-1.6-1.7-1.5-.6-2.4-.6-1.6.2-2.3.6c-.7.4-1.3,1-1.7,1.7-.4.7-.7,1.6-.7,2.6v-.2Z"/>
    <path d="M524.6,597.2h-5.3v-17.2h5.3v2.8h0c0-.3.4-.8.8-1.3.4-.5,1.1-1,1.8-1.4.8-.4,1.7-.6,2.8-.6s1.5,0,2.2.3,1.1.5,1.4.7l-2.1,4.4c-.2-.2-.5-.5-1-.7s-1.1-.4-1.9-.4-1.6.2-2.2.7c-.6.5-1,1.1-1.3,1.8s-.4,1.3-.4,1.9v9Z"/>
    <path d="M546.1,579.4c1.2,0,2.3.2,3.4.7s2,1.2,2.8,2.3c.7,1,1.1,2.4,1.1,4.1v10.6h-5.4v-9.7c0-1.4-.3-2.5-1-3.2s-1.5-1-2.6-1-1.4.2-2,.6c-.6.4-1.2.9-1.6,1.6-.4.7-.6,1.5-.6,2.3v9.4h-5.3v-17.2h5.3v2.8c.2-.5.5-1,1.1-1.5.5-.5,1.2-.9,2.1-1.3.8-.3,1.7-.5,2.7-.5h0Z"/>
    <path d="M560.1,575.5c-.9,0-1.6-.3-2.2-.9s-.9-1.4-.9-2.2.3-1.6.9-2.2,1.4-.9,2.2-.9,1.1,0,1.6.4c.5.3.9.7,1.2,1.1.3.5.4,1,.4,1.6,0,.9-.3,1.6-.9,2.2s-1.4.9-2.2.9h0ZM557.4,597.2v-17.2h5.3v17.2h-5.3Z"/>
    <path d="M578.1,579.4c1.2,0,2.3.2,3.4.7s2,1.2,2.8,2.3c.7,1,1.1,2.4,1.1,4.1v10.6h-5.4v-9.7c0-1.4-.3-2.5-1-3.2s-1.5-1-2.6-1-1.4.2-2,.6c-.6.4-1.2.9-1.6,1.6-.4.7-.6,1.5-.6,2.3v9.4h-5.3v-17.2h5.3v2.8c.2-.5.5-1,1.1-1.5.5-.5,1.2-.9,2.1-1.3.8-.3,1.7-.5,2.7-.5h0Z"/>
    <path d="M602.7,597.2v-3c0,.3-.4.7-1,1.3-.5.6-1.2,1.1-2.1,1.5-.9.5-1.9.7-3.1.7s-3.1-.4-4.4-1.2c-1.3-.8-2.3-1.9-3-3.3s-1.1-2.9-1.1-4.7.4-3.3,1.1-4.7,1.7-2.5,3-3.3,2.7-1.2,4.4-1.2,2.1.2,3,.6c.8.4,1.5.8,2.1,1.3.5.5.9,1,1,1.4v-2.8h5.3v17.2h-5.2v.2ZM597.9,606.4c-1.3,0-2.5,0-3.6-.4-1.2-.2-2.2-.6-3.1-1.1-.9-.5-1.7-1.2-2.4-2l3.2-3.3c.3.4.7.8,1.1,1.1.5.4,1.1.7,1.8,1s1.6.4,2.7.4,1.9-.2,2.7-.6c.7-.4,1.3-1,1.7-1.7s.6-1.6.6-2.5v-.5h5.2v.8c0,1.9-.4,3.5-1.3,4.8s-2.1,2.3-3.6,2.9c-1.5.7-3.2,1-5.1,1h0ZM593.3,588.6c0,1,.2,1.8.7,2.6.4.7,1,1.3,1.7,1.7s1.5.6,2.3.6,1.7-.2,2.4-.6c.7-.4,1.2-1,1.6-1.7.4-.7.6-1.6.6-2.5s-.2-1.8-.6-2.5-.9-1.3-1.6-1.7c-.7-.4-1.5-.6-2.4-.6s-1.6.2-2.3.6c-.7.4-1.3,1-1.7,1.7s-.7,1.6-.7,2.6v-.2Z"/>
    <path d="M365.4,614.6h2.9c.6,0,1.1,0,1.6.2s.9.4,1.2.8c.3.4.5.9.5,1.5s0,.8-.3,1.2c-.2.4-.4.7-.6.9-.3.2-.5.4-.8.4.2,0,.4,0,.7.2s.5.3.7.5.4.5.6.8c.1.3.2.7.2,1.1s-.1,1.1-.4,1.5c-.2.4-.6.8-1.1,1.1s-1.1.4-1.8.4h-3.5v-10.6h0ZM366.8,619.2h1.8c.4,0,.7,0,1-.3.3-.2.5-.4.6-.7s.2-.6.2-.9c0-.6-.2-1-.5-1.3-.4-.2-.8-.4-1.4-.4h-1.6v3.5h-.1ZM366.8,624h2c.5,0,.9,0,1.2-.3.3-.2.5-.4.6-.7s.2-.6.2-.9c0-.5-.2-1-.5-1.3s-.9-.5-1.5-.5h-1.9v3.7h-.1Z"/>
    <path d="M376.8,625.4c-.7,0-1.3-.2-1.8-.5s-.9-.7-1.2-1.2-.4-1.1-.4-1.8.1-1.2.4-1.8.7-.9,1.2-1.3c.5-.3,1.1-.5,1.8-.5s1.3.2,1.8.5.9.7,1.2,1.3.4,1.1.4,1.8-.1,1.2-.4,1.8-.7.9-1.2,1.2-1.1.5-1.8.5ZM376.8,624.2c.4,0,.8,0,1.1-.3s.6-.5.7-.8c.2-.3.3-.7.3-1.2s0-.8-.3-1.2c-.2-.3-.4-.6-.7-.8-.3-.2-.7-.3-1.1-.3s-.8,0-1.1.3c-.3.2-.6.5-.7.8-.2.3-.3.7-.3,1.2s0,.8.3,1.2c.2.3.4.6.7.8.3.2.7.3,1.1.3ZM376.6,618.2l-.4-.6c.1,0,.3,0,.5-.2s.4-.3.6-.4c.2-.2.3-.4.3-.7s0-.4-.2-.6-.2-.2-.4-.2h-.5c-.2,0-.5,0-.7,0-.3,0-.5.2-.6.3v-.8s.3,0,.5-.2c.3,0,.6,0,1.1,0s.6,0,.9,0c.3,0,.5.3.7.5s.3.5.3.9,0,.6-.2.8-.3.4-.5.6c-.2.2-.4.3-.6.4-.2,0-.4.2-.6.3l-.2-.2Z"/>
    <path d="M384.9,618.6h1.3v-2.7h1.4v2.7h1.7v1.2h-1.7v3.2c0,.4,0,.7.2.8.1.2.3.3.5.3s.4,0,.5,0c.1,0,.2,0,.2-.2l.6,1s-.1,0-.3.2c-.1,0-.3,0-.5.2h-.8c-.5,0-.9-.2-1.3-.5-.3-.3-.5-.8-.5-1.5v-3.6h-1.3v-1.2.2Z"/>
    <path d="M391.9,621.9c0,.7.1,1.2.4,1.6.3.4.8.6,1.4.6s1.1-.2,1.4-.6c.3-.4.4-1,.4-1.6v-3.3h1.4v3.5c0,.6-.1,1.2-.4,1.7-.2.5-.6.9-1.1,1.1-.5.3-1,.4-1.7.4s-1.3,0-1.7-.4c-.5-.3-.8-.7-1.1-1.1-.2-.5-.4-1.1-.4-1.7v-3.5h1.4v3.3h0ZM392.7,617.7l-.5-.7,2.4-2,.8,1-2.7,1.7h0Z"/>
    <path d="M399.5,616.3c-.3,0-.5,0-.6-.3s-.3-.4-.3-.6,0-.5.3-.6.4-.3.6-.3.3,0,.5,0c.1,0,.3.2.3.3s.1.3.1.5,0,.5-.3.6c-.2.2-.4.3-.7.3h.1ZM398.8,625.2v-6.6h1.4v6.6h-1.4Z"/>
    <path d="M410,618.6h1.7l-3.4,3.1,3.6,3.4h-1.7l-3-2.9v2.9h-1.4v-11h1.4v7l2.8-2.6h0Z"/>
    <path d="M415.4,623.9l2.2-5.3h1.4l-4.4,9.9h-1.4l1.5-3.3-2.7-6.6h1.4l2,5.3h0ZM412.9,617.1c0-.2.1-.5.3-.8.1-.3.3-.5.5-.7s.5-.3.7-.3.6,0,.8.2c.2,0,.4.2.6.3s.4.2.7.2.3,0,.4-.2.2-.3.2-.4h1c0,.2-.1.5-.3.7-.1.3-.3.5-.5.7s-.5.3-.7.3-.6,0-.8-.2c-.2,0-.4-.2-.6-.3s-.4-.2-.6-.2-.3,0-.4.2c-.1,0-.2.3-.2.4h-1.1Z"/>
    <path d="M427.4,618.4c.4,0,.9,0,1.3.3.4.2.7.5,1,.9s.4.9.4,1.5v4.1h-1.4v-3.8c0-.7-.2-1.1-.5-1.4-.3-.3-.7-.4-1.2-.4s-.6,0-.9.3c-.3.2-.5.4-.7.7s-.3.7-.3,1.1v3.6h-1.4v-6.6h1.4v1.2c0-.2.2-.4.4-.6s.5-.4.8-.5.7-.2,1.1-.2v-.2Z"/>
    <path d="M437,625.2v-1.3c0,0-.2.3-.4.6-.2.2-.5.4-.8.6s-.8.3-1.3.3-1.2,0-1.7-.4-.9-.7-1.2-1.2c-.3-.5-.4-1.1-.4-1.8s.1-1.3.4-1.8.7-.9,1.2-1.2,1-.4,1.7-.4.9,0,1.2.3c.3.2.6.4.8.6.2.2.3.4.4.6v-1.2h1.4v6.6h-1.4v-.3ZM434.9,617.5c-.5,0-.9,0-1.2-.3-.3-.2-.6-.4-.8-.7s-.3-.6-.4-.9l1.1-.3c0,.2,0,.3.2.5,0,.2.2.3.4.5.2,0,.4.2.7.2s.5,0,.7-.2c.2,0,.3-.3.4-.5,0-.2.2-.4.2-.5l1.1.3c0,.3-.1.6-.3.9-.2.3-.5.5-.8.7s-.7.3-1.2.3h-.1ZM432.7,621.9c0,.5.1.9.3,1.2s.5.6.8.8.7.3,1.1.3.8,0,1.1-.3.6-.5.8-.8c.2-.3.3-.8.3-1.2s0-.9-.3-1.2-.4-.6-.8-.8c-.3-.2-.7-.3-1.1-.3s-.7,0-1.1.3c-.3.2-.6.5-.8.8s-.3.8-.3,1.2Z"/>
    <path d="M443.9,618.4c.4,0,.9,0,1.3.3.4.2.7.5,1,.9s.4.9.4,1.5v4.1h-1.4v-3.8c0-.7-.2-1.1-.5-1.4-.3-.3-.7-.4-1.2-.4s-.6,0-.9.3c-.3.2-.5.4-.7.7s-.3.7-.3,1.1v3.6h-1.4v-6.6h1.4v1.2c0-.2.2-.4.4-.6s.5-.4.8-.5.7-.2,1.1-.2v-.2Z"/>
    <path d="M453.5,625.2v-1.3c0,0-.2.3-.4.6-.2.2-.5.4-.8.6s-.8.3-1.3.3-1.2,0-1.7-.4-.9-.7-1.2-1.2c-.3-.5-.4-1.1-.4-1.8s.1-1.3.4-1.8.7-.9,1.2-1.2,1-.4,1.7-.4.9,0,1.2.3c.3.2.6.4.8.6.2.2.3.4.4.6v-1.2h1.4v6.6h-1.4v-.3ZM451.3,628.7c-.5,0-1,0-1.4-.2-.4,0-.8-.3-1.1-.5-.3-.2-.6-.4-.7-.7l.9-.9c.1,0,.2.3.4.4.2.2.4.3.7.4.3,0,.7.2,1.2.2s.9,0,1.2-.3c.3-.2.6-.5.7-.8.2-.3.3-.7.3-1.2v-.2h1.4v.3c0,.7-.2,1.3-.5,1.8s-.7.9-1.3,1.1-1.1.4-1.8.4v.2ZM449.1,621.9c0,.5.1.9.3,1.2s.5.6.8.8.7.3,1.1.3.8,0,1.1-.3.6-.5.8-.8c.2-.3.3-.8.3-1.2s0-.9-.3-1.2-.4-.6-.8-.8c-.3-.2-.7-.3-1.1-.3s-.7,0-1.1.3c-.3.2-.6.5-.8.8s-.3.8-.3,1.2Z"/>
    <path d="M460.5,622.1v-1.2h4.1v1.2h-4.1Z"/>
    <path d="M472.5,615.8h-2.8v-1.2h7.1v1.2h-2.8v9.3h-1.4v-9.3h-.1Z"/>
    <path d="M481.7,618.4c.4,0,.9,0,1.3.3.4.2.7.5,1,.9s.4.9.4,1.5v4.1h-1.4v-3.8c0-.7-.1-1.1-.4-1.4s-.7-.4-1.2-.4-.6,0-.9.3c-.3.2-.5.4-.7.7s-.3.7-.3,1.1v3.6h-1.4v-11h1.4v5.6c0-.2.2-.4.4-.6.2-.2.5-.4.8-.5s.7-.2,1.1-.2v-.2Z"/>
    <path d="M491.4,625.2v-1.3c0,0-.2.3-.4.6-.2.2-.5.4-.8.6s-.8.3-1.3.3-1.2,0-1.7-.4-.9-.7-1.2-1.2c-.3-.5-.4-1.1-.4-1.8s.1-1.3.4-1.8.7-.9,1.2-1.2,1-.4,1.7-.4.9,0,1.2.3c.3.2.6.4.8.6.2.2.3.4.4.6v-1.2h1.4v6.6h-1.4v-.3ZM487,621.9c0,.5.1.9.3,1.2s.5.6.8.8.7.3,1.1.3.8,0,1.1-.3.6-.5.8-.8c.2-.3.3-.8.3-1.2s0-.9-.3-1.2-.4-.6-.8-.8c-.3-.2-.7-.3-1.1-.3s-.7,0-1.1.3c-.3.2-.6.5-.8.8s-.3.8-.3,1.2ZM490.6,617.4l-2.7-1.7.8-1,2.4,2-.5.7h0Z"/>
    <path d="M498.1,618.4c.4,0,.9,0,1.3.3.4.2.7.5,1,.9s.4.9.4,1.5v4.1h-1.4v-3.8c0-.7-.2-1.1-.5-1.4-.3-.3-.7-.4-1.2-.4s-.6,0-.9.3c-.3.2-.5.4-.7.7s-.3.7-.3,1.1v3.6h-1.4v-6.6h1.4v1.2c0-.2.2-.4.4-.6s.5-.4.8-.5.7-.2,1.1-.2v-.2Z"/>
    <path d="M506.2,618.4c.4,0,.9,0,1.3.3.4.2.7.5,1,.9s.4.9.4,1.5v4.1h-1.4v-3.8c0-.7-.1-1.1-.4-1.4s-.7-.4-1.2-.4-.6,0-.9.3c-.3.2-.5.4-.7.7s-.3.7-.3,1.1v3.6h-1.4v-11h1.4v5.6c0-.2.2-.4.4-.6.2-.2.5-.4.8-.5s.7-.2,1.1-.2v-.2Z"/>
    <path d="M513.8,618.6h1.3v-2.7h1.4v2.7h1.7v1.2h-1.7v3.2c0,.4,0,.7.2.8,0,.2.3.3.5.3s.4,0,.5,0c0,0,.2,0,.2-.2l.6,1s0,0-.3.2c0,0-.3,0-.5.2h-.8c-.5,0-.9-.2-1.3-.5-.3-.3-.5-.8-.5-1.5v-3.6h-1.3v-1.2.2Z"/>
    <path d="M523.2,618.4c.4,0,.9,0,1.3.3.4.2.7.5,1,.9s.4.9.4,1.5v4.1h-1.4v-3.8c0-.7,0-1.1-.4-1.4s-.7-.4-1.2-.4-.6,0-.9.3c-.3.2-.5.4-.7.7s-.3.7-.3,1.1v3.6h-1.4v-11h1.4v5.6c0-.2.2-.4.4-.6.2-.2.5-.4.8-.5s.7-.2,1.1-.2v-.2Z"/>
    <path d="M532.9,625.2v-1.3c0,0-.2.3-.4.6-.2.2-.5.4-.8.6s-.8.3-1.3.3-1.2,0-1.7-.4-.9-.7-1.2-1.2-.4-1.1-.4-1.8,0-1.3.4-1.8c.3-.5.7-.9,1.2-1.2s1-.4,1.7-.4.9,0,1.2.3c.3.2.6.4.8.6.2.2.3.4.4.6v-1.2h1.4v6.6h-1.4v-.3ZM528.6,621.9c0,.5,0,.9.3,1.2s.5.6.8.8.7.3,1.1.3.8,0,1.1-.3.6-.5.8-.8.3-.8.3-1.2,0-.9-.3-1.2-.4-.6-.8-.8c-.3-.2-.7-.3-1.1-.3s-.7,0-1.1.3c-.3.2-.6.5-.8.8s-.3.8-.3,1.2ZM530.9,627.6c-.2,0-.4,0-.5-.2s-.2-.3-.2-.5,0-.4.2-.5.3-.2.5-.2.4,0,.5.2.2.3.2.5,0,.4-.2.5c0,0-.3.2-.5.2Z"/>
    <path d="M539,625.4c-.7,0-1.3-.2-1.8-.5s-.9-.7-1.2-1.2-.4-1.1-.4-1.8,0-1.2.4-1.8.7-.9,1.2-1.3,1.1-.5,1.8-.5,1.3.2,1.8.5.9.7,1.2,1.3c.3.5.4,1.1.4,1.8s0,1.2-.4,1.8c-.3.5-.7.9-1.2,1.2s-1.1.5-1.8.5ZM539,624.2c.4,0,.8,0,1.1-.3s.6-.5.7-.8c.2-.3.3-.7.3-1.2s0-.8-.3-1.2c-.2-.3-.4-.6-.7-.8s-.7-.3-1.1-.3-.8,0-1.1.3-.6.5-.7.8c-.2.3-.3.7-.3,1.2s0,.8.3,1.2c.2.3.4.6.7.8s.7.3,1.1.3Z"/>
    <path d="M550.6,625.4c-.6,0-1.1,0-1.6-.4-.5-.3-.9-.7-1.1-1.2-.3-.5-.4-1.1-.4-1.8s0-1.3.4-1.8c.3-.5.7-.9,1.1-1.2.5-.3,1-.4,1.6-.4s.9,0,1.3.3c.4.2.7.4.9.6.2.2.3.4.4.6v-5.7h1.4v11h-1.4v-1.3c0,.2-.2.4-.4.6-.2.2-.5.4-.9.6-.4.2-.8.3-1.2.3v-.2ZM550.9,624.2c.4,0,.8,0,1.1-.3s.6-.5.8-.8.3-.8.3-1.2,0-.9-.3-1.2-.5-.6-.8-.8-.7-.3-1.1-.3-.7,0-1,.3c-.3.2-.6.5-.8.8s-.3.8-.3,1.2,0,.9.3,1.2c.2.3.5.6.8.8s.7.3,1,.3ZM551.3,616.9v-.9h3.9v.9h-3.9Z"/>
    <path d="M558.9,625.4c-.7,0-1.3-.2-1.8-.5s-.9-.7-1.2-1.2-.4-1.1-.4-1.8,0-1.2.4-1.8.7-.9,1.2-1.3,1.1-.5,1.8-.5,1.3.2,1.8.5.9.7,1.2,1.3c.3.5.4,1.1.4,1.8s0,1.2-.4,1.8c-.3.5-.7.9-1.2,1.2s-1.1.5-1.8.5ZM558.9,624.2c.4,0,.8,0,1.1-.3s.6-.5.7-.8c.2-.3.3-.7.3-1.2s0-.8-.3-1.2c-.2-.3-.4-.6-.7-.8s-.7-.3-1.1-.3-.8,0-1.1.3-.6.5-.7.8c-.2.3-.3.7-.3,1.2s0,.8.3,1.2c.2.3.4.6.7.8s.7.3,1.1.3ZM558.9,628.6c-.2,0-.4,0-.5-.2,0,0-.2-.3-.2-.5s0-.4.2-.5c0,0,.3-.2.5-.2s.4,0,.5.2.2.3.2.5,0,.4-.2.5c0,0-.3.2-.5.2Z"/>
    <path d="M566.9,624.2c.4,0,.8,0,1-.2.3,0,.4-.2.5-.3l.7,1s-.2,0-.4.2c-.2,0-.5.2-.8.3-.3,0-.7,0-1.1,0-.6,0-1.2,0-1.7-.4s-.9-.7-1.3-1.2c-.3-.5-.5-1.1-.5-1.9s.2-1.4.5-1.9.7-.9,1.3-1.2c.5-.3,1.1-.4,1.7-.4s.7,0,1,0c.3,0,.6.2.8.3s.3.2.4.3l-.7,1-.2-.2c0,0-.3-.2-.5-.2s-.4,0-.7,0-.7,0-1,.3c-.3.2-.6.4-.8.8s-.3.8-.3,1.2,0,.9.3,1.3c.2.3.5.6.8.8s.7.3,1,.3h0Z"/>
    <path d="M577.8,618.4c.4,0,.9,0,1.3.3.4.2.7.5,1,.9s.4.9.4,1.5v4.1h-1.4v-3.8c0-.7,0-1.1-.4-1.4s-.7-.4-1.2-.4-.6,0-.9.3c-.3.2-.5.4-.7.7s-.3.7-.3,1.1v3.6h-1.4v-11h1.4v5.6c0-.2.2-.4.4-.6.2-.2.5-.4.8-.5s.7-.2,1.1-.2v-.2Z"/>
    <path d="M583,616.3c-.3,0-.5,0-.6-.3s-.3-.4-.3-.6,0-.5.3-.6.4-.3.6-.3.3,0,.5,0c0,0,.3.2.3.3s0,.3,0,.5,0,.5-.3.6c-.2.2-.4.3-.7.3h.1ZM582.3,625.2v-6.6h1.4v6.6h-1.4Z"/>
    <path d="M586.6,622.2c0,.4,0,.8.3,1.1s.4.6.7.8.7.3,1.2.3.8,0,1-.2.5-.3.7-.4c.2-.2.3-.3.4-.5l.7.8c-.2.3-.4.5-.6.7-.3.2-.6.3-.9.4-.4,0-.8.2-1.3.2s-1.3-.2-1.8-.5-.9-.7-1.2-1.3c-.3-.5-.4-1.2-.4-1.8s0-1.2.4-1.7.6-.9,1.1-1.2,1.1-.4,1.8-.4,1.2,0,1.7.4c.5.3.8.6,1.1,1.1s.4,1.1.4,1.8,0,0,0,.2v.2h-5.3ZM590.4,617.9l-1.8-1.3-1.8,1.3-.6-.8,2.4-1.8,2.4,1.8-.6.8h0ZM590.4,621.1c0-.2,0-.5-.2-.7,0-.3-.3-.5-.6-.7s-.6-.3-1.1-.3-.8,0-1.1.3c-.3.2-.5.4-.6.7s-.2.5-.2.7h3.8,0ZM590.1,615.8l-.4-.6c0,0,.3,0,.5-.2.2,0,.4-.3.6-.4s.3-.4.3-.7,0-.4-.2-.6c0,0-.2-.2-.4-.2h-.5c-.2,0-.5,0-.7,0-.3,0-.5.2-.6.3v-.8s.3,0,.5-.2c.3,0,.6,0,1.1,0s.6,0,.9,0c.3,0,.5.3.7.5s.3.5.3.9,0,.6-.2.8-.3.4-.5.6-.4.3-.6.4-.4.2-.6.3l-.2-.2Z"/>
    <path d="M594.5,621.9c0,.7,0,1.2.4,1.6.3.4.8.6,1.4.6s1.1-.2,1.4-.6c.3-.4.4-1,.4-1.6v-3.3h1.4v3.5c0,.6,0,1.2-.4,1.7-.2.5-.6.9-1.1,1.1-.5.3-1,.4-1.7.4s-1.3,0-1.7-.4c-.5-.3-.8-.7-1.1-1.1-.2-.5-.4-1.1-.4-1.7v-3.5h1.4v3.3h0Z"/>
    <path class="st10" d="M363.3,574.3h.4v22.9h-5.2v-27.7h7.2l12.4,22.8h-.4v-22.8h5.2v27.7h-7.3l-12.4-22.9h0Z"/>
    <path class="st10" d="M401.9,592.5c1.5,0,2.8-.2,3.9-.6,1.1-.4,2-.8,2.5-1.2l2.2,4.5c-.6.6-1.8,1.1-3.3,1.7-1.6.6-3.5.9-5.6.9s-4-.4-5.7-1.1c-1.8-.7-3.3-1.7-4.7-3s-2.4-2.8-3.2-4.6-1.1-3.6-1.1-5.7.4-3.9,1.1-5.7,1.8-3.3,3.1-4.6c1.3-1.3,2.9-2.3,4.7-3,1.8-.7,3.7-1.1,5.7-1.1s4.1.3,5.6.9c1.6.6,2.7,1.1,3.3,1.7l-2.2,4.5c-.5-.4-1.4-.8-2.5-1.2s-2.4-.6-3.9-.6-2.8.2-4,.7-2.1,1.1-2.9,2c-.8.8-1.4,1.8-1.8,2.9-.4,1.1-.6,2.3-.6,3.5s.2,2.4.6,3.6c.4,1.1,1,2.1,1.8,2.9.8.8,1.8,1.5,2.9,2,1.2.5,2.5.7,4,.7h.1Z"/>
    <path class="st10" d="M419.5,574.1h-7v-4.6h19.1v4.6h-6.9v23.1h-5.2v-23.1Z"/>
    <path class="st10" d="M445.3,569.5h17.2v4.6h-12v6.9h11.8v4.5h-11.8v7h12v4.6h-17.2v-27.7h0Z"/>
    <path class="st10" d="M472.6,597.2h-5.4v-28.9h5.4v28.9Z"/>
    <path class="st10" d="M480.6,589.7c0,.8.3,1.5.6,2.1s.9,1.1,1.6,1.4c.7.3,1.6.5,2.6.5s1.7,0,2.4-.3c.7-.2,1.3-.5,1.8-.8s.8-.6,1.1-1l2.2,3.3c-.4.5-.9,1-1.6,1.4-.6.4-1.5.7-2.5,1-1,.2-2.3.4-3.7.4s-3.5-.4-5-1.1c-1.4-.7-2.5-1.8-3.3-3.2s-1.2-3.1-1.2-5,.4-3.2,1.1-4.5c.7-1.4,1.8-2.4,3.1-3.2,1.4-.8,3-1.2,4.9-1.2s3.4.3,4.7,1c1.3.7,2.3,1.7,3.1,3,.7,1.3,1.1,3,1.1,4.9s0,.3,0,.7v.7h-13ZM488.7,586.4c0-.4-.2-.9-.4-1.4-.3-.5-.7-1-1.2-1.3s-1.3-.5-2.2-.5-1.7.2-2.2.5c-.6.4-1,.8-1.3,1.3s-.5,1-.5,1.5h7.9,0Z"/>
    <path class="st10" d="M510.4,597.2v-3c-.1.3-.4.7-1,1.3-.5.6-1.2,1.1-2.1,1.5-.9.5-1.9.7-3.1.7s-3.1-.4-4.4-1.2-2.3-1.9-3-3.3-1.1-2.9-1.1-4.7.4-3.3,1.1-4.7,1.7-2.5,3-3.3,2.7-1.2,4.4-1.2,2.1.2,3,.6c.8.4,1.5.8,2.1,1.3.5.5.9,1,1,1.4v-2.8h5.3v17.2h-5.2v.2ZM501,588.6c0,1,.2,1.8.7,2.6.4.7,1,1.3,1.7,1.7s1.5.6,2.3.6,1.7-.2,2.4-.6c.7-.4,1.2-1,1.6-1.7s.6-1.6.6-2.5-.2-1.8-.6-2.5-.9-1.3-1.6-1.7-1.5-.6-2.4-.6-1.6.2-2.3.6c-.7.4-1.3,1-1.7,1.7-.4.7-.7,1.6-.7,2.6v-.2Z"/>
    <path class="st10" d="M524.6,597.2h-5.3v-17.2h5.3v2.8h0c0-.3.4-.8.8-1.3.4-.5,1.1-1,1.8-1.4.8-.4,1.7-.6,2.8-.6s1.5,0,2.2.3,1.1.5,1.4.7l-2.1,4.4c-.2-.2-.5-.5-1-.7s-1.1-.4-1.9-.4-1.6.2-2.2.7c-.6.5-1,1.1-1.3,1.8s-.4,1.3-.4,1.9v9Z"/>
    <path class="st10" d="M546.1,579.4c1.2,0,2.3.2,3.4.7s2,1.2,2.8,2.3c.7,1,1.1,2.4,1.1,4.1v10.6h-5.4v-9.7c0-1.4-.3-2.5-1-3.2s-1.5-1-2.6-1-1.4.2-2,.6c-.6.4-1.2.9-1.6,1.6-.4.7-.6,1.5-.6,2.3v9.4h-5.3v-17.2h5.3v2.8c.2-.5.5-1,1.1-1.5.5-.5,1.2-.9,2.1-1.3.8-.3,1.7-.5,2.7-.5h0Z"/>
    <path class="st10" d="M560.1,575.5c-.9,0-1.6-.3-2.2-.9s-.9-1.4-.9-2.2.3-1.6.9-2.2,1.4-.9,2.2-.9,1.1,0,1.6.4c.5.3.9.7,1.2,1.1.3.5.4,1,.4,1.6,0,.9-.3,1.6-.9,2.2s-1.4.9-2.2.9h0ZM557.4,597.2v-17.2h5.3v17.2h-5.3Z"/>
    <path class="st10" d="M578.1,579.4c1.2,0,2.3.2,3.4.7s2,1.2,2.8,2.3c.7,1,1.1,2.4,1.1,4.1v10.6h-5.4v-9.7c0-1.4-.3-2.5-1-3.2s-1.5-1-2.6-1-1.4.2-2,.6c-.6.4-1.2.9-1.6,1.6-.4.7-.6,1.5-.6,2.3v9.4h-5.3v-17.2h5.3v2.8c.2-.5.5-1,1.1-1.5.5-.5,1.2-.9,2.1-1.3.8-.3,1.7-.5,2.7-.5h0Z"/>
    <path class="st10" d="M602.7,597.2v-3c0,.3-.4.7-1,1.3-.5.6-1.2,1.1-2.1,1.5-.9.5-1.9.7-3.1.7s-3.1-.4-4.4-1.2c-1.3-.8-2.3-1.9-3-3.3s-1.1-2.9-1.1-4.7.4-3.3,1.1-4.7,1.7-2.5,3-3.3,2.7-1.2,4.4-1.2,2.1.2,3,.6c.8.4,1.5.8,2.1,1.3.5.5.9,1,1,1.4v-2.8h5.3v17.2h-5.2v.2ZM597.9,606.4c-1.3,0-2.5,0-3.6-.4-1.2-.2-2.2-.6-3.1-1.1-.9-.5-1.7-1.2-2.4-2l3.2-3.3c.3.4.7.8,1.1,1.1.5.4,1.1.7,1.8,1s1.6.4,2.7.4,1.9-.2,2.7-.6c.7-.4,1.3-1,1.7-1.7s.6-1.6.6-2.5v-.5h5.2v.8c0,1.9-.4,3.5-1.3,4.8s-2.1,2.3-3.6,2.9c-1.5.7-3.2,1-5.1,1h0ZM593.3,588.6c0,1,.2,1.8.7,2.6.4.7,1,1.3,1.7,1.7s1.5.6,2.3.6,1.7-.2,2.4-.6c.7-.4,1.2-1,1.6-1.7.4-.7.6-1.6.6-2.5s-.2-1.8-.6-2.5-.9-1.3-1.6-1.7c-.7-.4-1.5-.6-2.4-.6s-1.6.2-2.3.6c-.7.4-1.3,1-1.7,1.7s-.7,1.6-.7,2.6v-.2Z"/>
    <path class="st10" d="M365.4,614.6h2.9c.6,0,1.1,0,1.6.2s.9.4,1.2.8c.3.4.5.9.5,1.5s0,.8-.3,1.2c-.2.4-.4.7-.6.9-.3.2-.5.4-.8.4.2,0,.4,0,.7.2s.5.3.7.5.4.5.6.8c.1.3.2.7.2,1.1s-.1,1.1-.4,1.5c-.2.4-.6.8-1.1,1.1s-1.1.4-1.8.4h-3.5v-10.6h0ZM366.8,619.2h1.8c.4,0,.7,0,1-.3.3-.2.5-.4.6-.7s.2-.6.2-.9c0-.6-.2-1-.5-1.3-.4-.2-.8-.4-1.4-.4h-1.6v3.5h-.1ZM366.8,624h2c.5,0,.9,0,1.2-.3.3-.2.5-.4.6-.7s.2-.6.2-.9c0-.5-.2-1-.5-1.3s-.9-.5-1.5-.5h-1.9v3.7h-.1Z"/>
    <path class="st10" d="M376.8,625.4c-.7,0-1.3-.2-1.8-.5s-.9-.7-1.2-1.2-.4-1.1-.4-1.8.1-1.2.4-1.8.7-.9,1.2-1.3c.5-.3,1.1-.5,1.8-.5s1.3.2,1.8.5.9.7,1.2,1.3.4,1.1.4,1.8-.1,1.2-.4,1.8-.7.9-1.2,1.2-1.1.5-1.8.5ZM376.8,624.2c.4,0,.8,0,1.1-.3s.6-.5.7-.8c.2-.3.3-.7.3-1.2s0-.8-.3-1.2c-.2-.3-.4-.6-.7-.8-.3-.2-.7-.3-1.1-.3s-.8,0-1.1.3c-.3.2-.6.5-.7.8-.2.3-.3.7-.3,1.2s0,.8.3,1.2c.2.3.4.6.7.8.3.2.7.3,1.1.3ZM376.6,618.2l-.4-.6c.1,0,.3,0,.5-.2s.4-.3.6-.4c.2-.2.3-.4.3-.7s0-.4-.2-.6-.2-.2-.4-.2h-.5c-.2,0-.5,0-.7,0-.3,0-.5.2-.6.3v-.8s.3,0,.5-.2c.3,0,.6,0,1.1,0s.6,0,.9,0c.3,0,.5.3.7.5s.3.5.3.9,0,.6-.2.8-.3.4-.5.6c-.2.2-.4.3-.6.4-.2,0-.4.2-.6.3l-.2-.2Z"/>
    <path class="st10" d="M384.9,618.6h1.3v-2.7h1.4v2.7h1.7v1.2h-1.7v3.2c0,.4,0,.7.2.8.1.2.3.3.5.3s.4,0,.5,0c.1,0,.2,0,.2-.2l.6,1s-.1,0-.3.2c-.1,0-.3,0-.5.2h-.8c-.5,0-.9-.2-1.3-.5-.3-.3-.5-.8-.5-1.5v-3.6h-1.3v-1.2.2Z"/>
    <path class="st10" d="M391.9,621.9c0,.7.1,1.2.4,1.6.3.4.8.6,1.4.6s1.1-.2,1.4-.6c.3-.4.4-1,.4-1.6v-3.3h1.4v3.5c0,.6-.1,1.2-.4,1.7-.2.5-.6.9-1.1,1.1-.5.3-1,.4-1.7.4s-1.3,0-1.7-.4c-.5-.3-.8-.7-1.1-1.1-.2-.5-.4-1.1-.4-1.7v-3.5h1.4v3.3h0ZM392.7,617.7l-.5-.7,2.4-2,.8,1-2.7,1.7h0Z"/>
    <path class="st10" d="M399.5,616.3c-.3,0-.5,0-.6-.3s-.3-.4-.3-.6,0-.5.3-.6.4-.3.6-.3.3,0,.5,0c.1,0,.3.2.3.3s.1.3.1.5,0,.5-.3.6c-.2.2-.4.3-.7.3h.1ZM398.8,625.2v-6.6h1.4v6.6h-1.4Z"/>
    <path class="st10" d="M410,618.6h1.7l-3.4,3.1,3.6,3.4h-1.7l-3-2.9v2.9h-1.4v-11h1.4v7l2.8-2.6h0Z"/>
    <path class="st10" d="M415.4,623.9l2.2-5.3h1.4l-4.4,9.9h-1.4l1.5-3.3-2.7-6.6h1.4l2,5.3h0ZM412.9,617.1c0-.2.1-.5.3-.8.1-.3.3-.5.5-.7s.5-.3.7-.3.6,0,.8.2c.2,0,.4.2.6.3s.4.2.7.2.3,0,.4-.2.2-.3.2-.4h1c0,.2-.1.5-.3.7-.1.3-.3.5-.5.7s-.5.3-.7.3-.6,0-.8-.2c-.2,0-.4-.2-.6-.3s-.4-.2-.6-.2-.3,0-.4.2c-.1,0-.2.3-.2.4h-1.1Z"/>
    <path class="st10" d="M427.4,618.4c.4,0,.9,0,1.3.3.4.2.7.5,1,.9s.4.9.4,1.5v4.1h-1.4v-3.8c0-.7-.2-1.1-.5-1.4-.3-.3-.7-.4-1.2-.4s-.6,0-.9.3c-.3.2-.5.4-.7.7s-.3.7-.3,1.1v3.6h-1.4v-6.6h1.4v1.2c0-.2.2-.4.4-.6s.5-.4.8-.5.7-.2,1.1-.2v-.2Z"/>
    <path class="st10" d="M437,625.2v-1.3c0,0-.2.3-.4.6-.2.2-.5.4-.8.6s-.8.3-1.3.3-1.2,0-1.7-.4-.9-.7-1.2-1.2c-.3-.5-.4-1.1-.4-1.8s.1-1.3.4-1.8.7-.9,1.2-1.2,1-.4,1.7-.4.9,0,1.2.3c.3.2.6.4.8.6.2.2.3.4.4.6v-1.2h1.4v6.6h-1.4v-.3ZM434.9,617.5c-.5,0-.9,0-1.2-.3-.3-.2-.6-.4-.8-.7s-.3-.6-.4-.9l1.1-.3c0,.2,0,.3.2.5,0,.2.2.3.4.5.2,0,.4.2.7.2s.5,0,.7-.2c.2,0,.3-.3.4-.5,0-.2.2-.4.2-.5l1.1.3c0,.3-.1.6-.3.9-.2.3-.5.5-.8.7s-.7.3-1.2.3h-.1ZM432.7,621.9c0,.5.1.9.3,1.2s.5.6.8.8.7.3,1.1.3.8,0,1.1-.3.6-.5.8-.8c.2-.3.3-.8.3-1.2s0-.9-.3-1.2-.4-.6-.8-.8c-.3-.2-.7-.3-1.1-.3s-.7,0-1.1.3c-.3.2-.6.5-.8.8s-.3.8-.3,1.2Z"/>
    <path class="st10" d="M443.9,618.4c.4,0,.9,0,1.3.3.4.2.7.5,1,.9s.4.9.4,1.5v4.1h-1.4v-3.8c0-.7-.2-1.1-.5-1.4-.3-.3-.7-.4-1.2-.4s-.6,0-.9.3c-.3.2-.5.4-.7.7s-.3.7-.3,1.1v3.6h-1.4v-6.6h1.4v1.2c0-.2.2-.4.4-.6s.5-.4.8-.5.7-.2,1.1-.2v-.2Z"/>
    <path class="st10" d="M453.5,625.2v-1.3c0,0-.2.3-.4.6-.2.2-.5.4-.8.6s-.8.3-1.3.3-1.2,0-1.7-.4-.9-.7-1.2-1.2c-.3-.5-.4-1.1-.4-1.8s.1-1.3.4-1.8.7-.9,1.2-1.2,1-.4,1.7-.4.9,0,1.2.3c.3.2.6.4.8.6.2.2.3.4.4.6v-1.2h1.4v6.6h-1.4v-.3ZM451.3,628.7c-.5,0-1,0-1.4-.2-.4,0-.8-.3-1.1-.5-.3-.2-.6-.4-.7-.7l.9-.9c.1,0,.2.3.4.4.2.2.4.3.7.4.3,0,.7.2,1.2.2s.9,0,1.2-.3c.3-.2.6-.5.7-.8.2-.3.3-.7.3-1.2v-.2h1.4v.3c0,.7-.2,1.3-.5,1.8s-.7.9-1.3,1.1-1.1.4-1.8.4v.2ZM449.1,621.9c0,.5.1.9.3,1.2s.5.6.8.8.7.3,1.1.3.8,0,1.1-.3.6-.5.8-.8c.2-.3.3-.8.3-1.2s0-.9-.3-1.2-.4-.6-.8-.8c-.3-.2-.7-.3-1.1-.3s-.7,0-1.1.3c-.3.2-.6.5-.8.8s-.3.8-.3,1.2Z"/>
    <path class="st10" d="M460.5,622.1v-1.2h4.1v1.2h-4.1Z"/>
    <path class="st10" d="M472.5,615.8h-2.8v-1.2h7.1v1.2h-2.8v9.3h-1.4v-9.3h-.1Z"/>
    <path class="st10" d="M481.7,618.4c.4,0,.9,0,1.3.3.4.2.7.5,1,.9s.4.9.4,1.5v4.1h-1.4v-3.8c0-.7-.1-1.1-.4-1.4s-.7-.4-1.2-.4-.6,0-.9.3c-.3.2-.5.4-.7.7s-.3.7-.3,1.1v3.6h-1.4v-11h1.4v5.6c0-.2.2-.4.4-.6.2-.2.5-.4.8-.5s.7-.2,1.1-.2v-.2Z"/>
    <path class="st10" d="M491.4,625.2v-1.3c0,0-.2.3-.4.6-.2.2-.5.4-.8.6s-.8.3-1.3.3-1.2,0-1.7-.4-.9-.7-1.2-1.2c-.3-.5-.4-1.1-.4-1.8s.1-1.3.4-1.8.7-.9,1.2-1.2,1-.4,1.7-.4.9,0,1.2.3c.3.2.6.4.8.6.2.2.3.4.4.6v-1.2h1.4v6.6h-1.4v-.3ZM487,621.9c0,.5.1.9.3,1.2s.5.6.8.8.7.3,1.1.3.8,0,1.1-.3.6-.5.8-.8c.2-.3.3-.8.3-1.2s0-.9-.3-1.2-.4-.6-.8-.8c-.3-.2-.7-.3-1.1-.3s-.7,0-1.1.3c-.3.2-.6.5-.8.8s-.3.8-.3,1.2ZM490.6,617.4l-2.7-1.7.8-1,2.4,2-.5.7h0Z"/>
    <path class="st10" d="M498.1,618.4c.4,0,.9,0,1.3.3.4.2.7.5,1,.9s.4.9.4,1.5v4.1h-1.4v-3.8c0-.7-.2-1.1-.5-1.4-.3-.3-.7-.4-1.2-.4s-.6,0-.9.3c-.3.2-.5.4-.7.7s-.3.7-.3,1.1v3.6h-1.4v-6.6h1.4v1.2c0-.2.2-.4.4-.6s.5-.4.8-.5.7-.2,1.1-.2v-.2Z"/>
    <path class="st10" d="M506.2,618.4c.4,0,.9,0,1.3.3.4.2.7.5,1,.9s.4.9.4,1.5v4.1h-1.4v-3.8c0-.7-.1-1.1-.4-1.4s-.7-.4-1.2-.4-.6,0-.9.3c-.3.2-.5.4-.7.7s-.3.7-.3,1.1v3.6h-1.4v-11h1.4v5.6c0-.2.2-.4.4-.6.2-.2.5-.4.8-.5s.7-.2,1.1-.2v-.2Z"/>
    <path class="st10" d="M513.8,618.6h1.3v-2.7h1.4v2.7h1.7v1.2h-1.7v3.2c0,.4,0,.7.2.8,0,.2.3.3.5.3s.4,0,.5,0c0,0,.2,0,.2-.2l.6,1s0,0-.3.2c0,0-.3,0-.5.2h-.8c-.5,0-.9-.2-1.3-.5-.3-.3-.5-.8-.5-1.5v-3.6h-1.3v-1.2.2Z"/>
    <path class="st10" d="M523.2,618.4c.4,0,.9,0,1.3.3.4.2.7.5,1,.9s.4.9.4,1.5v4.1h-1.4v-3.8c0-.7,0-1.1-.4-1.4s-.7-.4-1.2-.4-.6,0-.9.3c-.3.2-.5.4-.7.7s-.3.7-.3,1.1v3.6h-1.4v-11h1.4v5.6c0-.2.2-.4.4-.6.2-.2.5-.4.8-.5s.7-.2,1.1-.2v-.2Z"/>
    <path class="st10" d="M532.9,625.2v-1.3c0,0-.2.3-.4.6-.2.2-.5.4-.8.6s-.8.3-1.3.3-1.2,0-1.7-.4-.9-.7-1.2-1.2-.4-1.1-.4-1.8,0-1.3.4-1.8c.3-.5.7-.9,1.2-1.2s1-.4,1.7-.4.9,0,1.2.3c.3.2.6.4.8.6.2.2.3.4.4.6v-1.2h1.4v6.6h-1.4v-.3ZM528.6,621.9c0,.5,0,.9.3,1.2s.5.6.8.8.7.3,1.1.3.8,0,1.1-.3.6-.5.8-.8.3-.8.3-1.2,0-.9-.3-1.2-.4-.6-.8-.8c-.3-.2-.7-.3-1.1-.3s-.7,0-1.1.3c-.3.2-.6.5-.8.8s-.3.8-.3,1.2ZM530.9,627.6c-.2,0-.4,0-.5-.2s-.2-.3-.2-.5,0-.4.2-.5.3-.2.5-.2.4,0,.5.2.2.3.2.5,0,.4-.2.5c0,0-.3.2-.5.2Z"/>
    <path class="st10" d="M539,625.4c-.7,0-1.3-.2-1.8-.5s-.9-.7-1.2-1.2-.4-1.1-.4-1.8,0-1.2.4-1.8.7-.9,1.2-1.3,1.1-.5,1.8-.5,1.3.2,1.8.5.9.7,1.2,1.3c.3.5.4,1.1.4,1.8s0,1.2-.4,1.8c-.3.5-.7.9-1.2,1.2s-1.1.5-1.8.5ZM539,624.2c.4,0,.8,0,1.1-.3s.6-.5.7-.8c.2-.3.3-.7.3-1.2s0-.8-.3-1.2c-.2-.3-.4-.6-.7-.8s-.7-.3-1.1-.3-.8,0-1.1.3-.6.5-.7.8c-.2.3-.3.7-.3,1.2s0,.8.3,1.2c.2.3.4.6.7.8s.7.3,1.1.3Z"/>
    <path class="st10" d="M550.6,625.4c-.6,0-1.1,0-1.6-.4-.5-.3-.9-.7-1.1-1.2-.3-.5-.4-1.1-.4-1.8s0-1.3.4-1.8c.3-.5.7-.9,1.1-1.2.5-.3,1-.4,1.6-.4s.9,0,1.3.3c.4.2.7.4.9.6.2.2.3.4.4.6v-5.7h1.4v11h-1.4v-1.3c0,.2-.2.4-.4.6-.2.2-.5.4-.9.6-.4.2-.8.3-1.2.3v-.2ZM550.9,624.2c.4,0,.8,0,1.1-.3s.6-.5.8-.8.3-.8.3-1.2,0-.9-.3-1.2-.5-.6-.8-.8-.7-.3-1.1-.3-.7,0-1,.3c-.3.2-.6.5-.8.8s-.3.8-.3,1.2,0,.9.3,1.2c.2.3.5.6.8.8s.7.3,1,.3ZM551.3,616.9v-.9h3.9v.9h-3.9Z"/>
    <path class="st10" d="M558.9,625.4c-.7,0-1.3-.2-1.8-.5s-.9-.7-1.2-1.2-.4-1.1-.4-1.8,0-1.2.4-1.8.7-.9,1.2-1.3,1.1-.5,1.8-.5,1.3.2,1.8.5.9.7,1.2,1.3c.3.5.4,1.1.4,1.8s0,1.2-.4,1.8c-.3.5-.7.9-1.2,1.2s-1.1.5-1.8.5ZM558.9,624.2c.4,0,.8,0,1.1-.3s.6-.5.7-.8c.2-.3.3-.7.3-1.2s0-.8-.3-1.2c-.2-.3-.4-.6-.7-.8s-.7-.3-1.1-.3-.8,0-1.1.3-.6.5-.7.8c-.2.3-.3.7-.3,1.2s0,.8.3,1.2c.2.3.4.6.7.8s.7.3,1.1.3ZM558.9,628.6c-.2,0-.4,0-.5-.2,0,0-.2-.3-.2-.5s0-.4.2-.5c0,0,.3-.2.5-.2s.4,0,.5.2.2.3.2.5,0,.4-.2.5c0,0-.3.2-.5.2Z"/>
    <path class="st10" d="M566.9,624.2c.4,0,.8,0,1-.2.3,0,.4-.2.5-.3l.7,1s-.2,0-.4.2c-.2,0-.5.2-.8.3-.3,0-.7,0-1.1,0-.6,0-1.2,0-1.7-.4s-.9-.7-1.3-1.2c-.3-.5-.5-1.1-.5-1.9s.2-1.4.5-1.9.7-.9,1.3-1.2c.5-.3,1.1-.4,1.7-.4s.7,0,1,0c.3,0,.6.2.8.3s.3.2.4.3l-.7,1-.2-.2c0,0-.3-.2-.5-.2s-.4,0-.7,0-.7,0-1,.3c-.3.2-.6.4-.8.8s-.3.8-.3,1.2,0,.9.3,1.3c.2.3.5.6.8.8s.7.3,1,.3h0Z"/>
    <path class="st10" d="M577.8,618.4c.4,0,.9,0,1.3.3.4.2.7.5,1,.9s.4.9.4,1.5v4.1h-1.4v-3.8c0-.7,0-1.1-.4-1.4s-.7-.4-1.2-.4-.6,0-.9.3c-.3.2-.5.4-.7.7s-.3.7-.3,1.1v3.6h-1.4v-11h1.4v5.6c0-.2.2-.4.4-.6.2-.2.5-.4.8-.5s.7-.2,1.1-.2v-.2Z"/>
    <path class="st10" d="M583,616.3c-.3,0-.5,0-.6-.3s-.3-.4-.3-.6,0-.5.3-.6.4-.3.6-.3.3,0,.5,0c0,0,.3.2.3.3s0,.3,0,.5,0,.5-.3.6c-.2.2-.4.3-.7.3h.1ZM582.3,625.2v-6.6h1.4v6.6h-1.4Z"/>
    <path class="st10" d="M586.6,622.2c0,.4,0,.8.3,1.1s.4.6.7.8.7.3,1.2.3.8,0,1-.2.5-.3.7-.4c.2-.2.3-.3.4-.5l.7.8c-.2.3-.4.5-.6.7-.3.2-.6.3-.9.4-.4,0-.8.2-1.3.2s-1.3-.2-1.8-.5-.9-.7-1.2-1.3c-.3-.5-.4-1.2-.4-1.8s0-1.2.4-1.7.6-.9,1.1-1.2,1.1-.4,1.8-.4,1.2,0,1.7.4c.5.3.8.6,1.1,1.1s.4,1.1.4,1.8,0,0,0,.2v.2h-5.3ZM590.4,617.9l-1.8-1.3-1.8,1.3-.6-.8,2.4-1.8,2.4,1.8-.6.8h0ZM590.4,621.1c0-.2,0-.5-.2-.7,0-.3-.3-.5-.6-.7s-.6-.3-1.1-.3-.8,0-1.1.3c-.3.2-.5.4-.6.7s-.2.5-.2.7h3.8,0ZM590.1,615.8l-.4-.6c0,0,.3,0,.5-.2.2,0,.4-.3.6-.4s.3-.4.3-.7,0-.4-.2-.6c0,0-.2-.2-.4-.2h-.5c-.2,0-.5,0-.7,0-.3,0-.5.2-.6.3v-.8s.3,0,.5-.2c.3,0,.6,0,1.1,0s.6,0,.9,0c.3,0,.5.3.7.5s.3.5.3.9,0,.6-.2.8-.3.4-.5.6-.4.3-.6.4-.4.2-.6.3l-.2-.2Z"/>
    <path class="st10" d="M594.5,621.9c0,.7,0,1.2.4,1.6.3.4.8.6,1.4.6s1.1-.2,1.4-.6c.3-.4.4-1,.4-1.6v-3.3h1.4v3.5c0,.6,0,1.2-.4,1.7-.2.5-.6.9-1.1,1.1-.5.3-1,.4-1.7.4s-1.3,0-1.7-.4c-.5-.3-.8-.7-1.1-1.1-.2-.5-.4-1.1-.4-1.7v-3.5h1.4v3.3h0Z"/>
  </g>
  <path class="st11" d="M439.2,377.5c.4,0,.6.4.4.7-3.7,5-7.4,10.1-11.1,15.1s-1,1.1-1.3,1.5c-.3.6-.3,2-.6,2.8-.4,1.5-2.7,4.8-4,5.4-1.9,1-3.3-.3-5.1-.6s-.4,0-.5.2c-.9,1.4-1.7,2.8-2.6,4.1-1.7,2.4-1.9,2-4.1,3.2s-3.4,1.9-5,3.1-4.4,3.7-6.4,4.8-.3.2-.5.2c-.4.1-.8-.3-.5-.7l8.9-13.2c.1-.5,1.3-.8,1.4-1s0-.2,0-.5-.3-.6-.7-.5-.5.3-.6.4,0,.9-.2,1.1c-4.1,5.8-8.1,11.7-12,17.6s-.1.2-.2.3c-.3.4-1,.1-.8-.4h0c5.5-8.1,10.5-16.6,16-24.7s1.9-3.1,3.3-3.1,4.3,3,5.3,4.3,1.1,2,1.3,1.8c-.2-.6-.4-1.2-.7-1.8-1-1.9-4.3-5.9-6.1-6.2s-2.1.3-2.7,1.4-.7.3-.8,0c-.5-1.1-.4-2.5,0-3.6s2.5-4.1,3.2-4.6c1.3-1.2,3.5.3,4.8,1.2,2.1,1.4,3.8,3.4,5.6,5.4s1,0,.7-.6-.1-.2-.2-.3c-1.3-1.9-3.5-4.4-5.2-5.8s-1.8-1.1-2.5-1.6-.2-.4-.1-.6c.7-1.5,1.6-3.7,2.9-4.4s2.4-.6,3.5-.5.6.4.4.7c-.7,1-2,2.3-2,3.2s.9,1.1,1.4.5c.9-1,2.3-4.3,3.7-4.3h13.7Z"/>
</svg>